<svg xmlns="http://www.w3.org/2000/svg" xmlns:xlink="http://www.w3.org/1999/xlink" width="600" height="400" viewBox="0 0 2400 1600" style="width: 100%; height: 100%;">
<defs>
  <clipPath id="clip8200">
    <rect x="0" y="0" width="2000" height="2000"></rect>
  </clipPath>
</defs>
<defs>
  <clipPath id="clip8201">
    <rect x="0" y="0" width="2400" height="1600"></rect>
  </clipPath>
</defs>
<polygon clip-path="url(#clip8201)" points="
0,1600 2400,1600 2400,0 0,0 
  " fill="#ffffff" fill-rule="evenodd" fill-opacity="1"></polygon>
<defs>
  <clipPath id="clip8202">
    <rect x="480" y="0" width="1681" height="1600"></rect>
  </clipPath>
</defs>
<polygon clip-path="url(#clip8201)" points="
189.504,1503.47 2321.26,1503.47 2321.26,47.2441 189.504,47.2441 
  " fill="#ffffff" fill-rule="evenodd" fill-opacity="1"></polygon>
<defs>
  <clipPath id="clip8203">
    <rect x="189" y="47" width="2133" height="1457"></rect>
  </clipPath>
</defs>
<polyline clip-path="url(#clip8203)" style="stroke:#000000; stroke-width:2; stroke-opacity:0.1; fill:none" points="
  473.291,1503.47 473.291,47.2441 
  "></polyline>
<polyline clip-path="url(#clip8203)" style="stroke:#000000; stroke-width:2; stroke-opacity:0.1; fill:none" points="
  920.2,1503.47 920.2,47.2441 
  "></polyline>
<polyline clip-path="url(#clip8203)" style="stroke:#000000; stroke-width:2; stroke-opacity:0.1; fill:none" points="
  1367.11,1503.47 1367.11,47.2441 
  "></polyline>
<polyline clip-path="url(#clip8203)" style="stroke:#000000; stroke-width:2; stroke-opacity:0.1; fill:none" points="
  1814.02,1503.47 1814.02,47.2441 
  "></polyline>
<polyline clip-path="url(#clip8203)" style="stroke:#000000; stroke-width:2; stroke-opacity:0.1; fill:none" points="
  2260.93,1503.47 2260.93,47.2441 
  "></polyline>
<polyline clip-path="url(#clip8203)" style="stroke:#000000; stroke-width:2; stroke-opacity:0.1; fill:none" points="
  189.504,1351.53 2321.26,1351.53 
  "></polyline>
<polyline clip-path="url(#clip8203)" style="stroke:#000000; stroke-width:2; stroke-opacity:0.1; fill:none" points="
  189.504,1163.58 2321.26,1163.58 
  "></polyline>
<polyline clip-path="url(#clip8203)" style="stroke:#000000; stroke-width:2; stroke-opacity:0.1; fill:none" points="
  189.504,975.638 2321.26,975.638 
  "></polyline>
<polyline clip-path="url(#clip8203)" style="stroke:#000000; stroke-width:2; stroke-opacity:0.1; fill:none" points="
  189.504,787.691 2321.26,787.691 
  "></polyline>
<polyline clip-path="url(#clip8203)" style="stroke:#000000; stroke-width:2; stroke-opacity:0.1; fill:none" points="
  189.504,599.744 2321.26,599.744 
  "></polyline>
<polyline clip-path="url(#clip8203)" style="stroke:#000000; stroke-width:2; stroke-opacity:0.1; fill:none" points="
  189.504,411.797 2321.26,411.797 
  "></polyline>
<polyline clip-path="url(#clip8203)" style="stroke:#000000; stroke-width:2; stroke-opacity:0.1; fill:none" points="
  189.504,223.85 2321.26,223.85 
  "></polyline>
<polyline clip-path="url(#clip8201)" style="stroke:#000000; stroke-width:4; stroke-opacity:1; fill:none" points="
  189.504,1503.47 2321.26,1503.47 
  "></polyline>
<polyline clip-path="url(#clip8201)" style="stroke:#000000; stroke-width:4; stroke-opacity:1; fill:none" points="
  189.504,1503.47 189.504,47.2441 
  "></polyline>
<polyline clip-path="url(#clip8201)" style="stroke:#000000; stroke-width:4; stroke-opacity:1; fill:none" points="
  473.291,1503.47 473.291,1481.63 
  "></polyline>
<polyline clip-path="url(#clip8201)" style="stroke:#000000; stroke-width:4; stroke-opacity:1; fill:none" points="
  920.2,1503.47 920.2,1481.63 
  "></polyline>
<polyline clip-path="url(#clip8201)" style="stroke:#000000; stroke-width:4; stroke-opacity:1; fill:none" points="
  1367.11,1503.47 1367.11,1481.63 
  "></polyline>
<polyline clip-path="url(#clip8201)" style="stroke:#000000; stroke-width:4; stroke-opacity:1; fill:none" points="
  1814.02,1503.47 1814.02,1481.63 
  "></polyline>
<polyline clip-path="url(#clip8201)" style="stroke:#000000; stroke-width:4; stroke-opacity:1; fill:none" points="
  2260.93,1503.47 2260.93,1481.63 
  "></polyline>
<polyline clip-path="url(#clip8201)" style="stroke:#000000; stroke-width:4; stroke-opacity:1; fill:none" points="
  189.504,1351.53 221.48,1351.53 
  "></polyline>
<polyline clip-path="url(#clip8201)" style="stroke:#000000; stroke-width:4; stroke-opacity:1; fill:none" points="
  189.504,1163.58 221.48,1163.58 
  "></polyline>
<polyline clip-path="url(#clip8201)" style="stroke:#000000; stroke-width:4; stroke-opacity:1; fill:none" points="
  189.504,975.638 221.48,975.638 
  "></polyline>
<polyline clip-path="url(#clip8201)" style="stroke:#000000; stroke-width:4; stroke-opacity:1; fill:none" points="
  189.504,787.691 221.48,787.691 
  "></polyline>
<polyline clip-path="url(#clip8201)" style="stroke:#000000; stroke-width:4; stroke-opacity:1; fill:none" points="
  189.504,599.744 221.48,599.744 
  "></polyline>
<polyline clip-path="url(#clip8201)" style="stroke:#000000; stroke-width:4; stroke-opacity:1; fill:none" points="
  189.504,411.797 221.48,411.797 
  "></polyline>
<polyline clip-path="url(#clip8201)" style="stroke:#000000; stroke-width:4; stroke-opacity:1; fill:none" points="
  189.504,223.85 221.48,223.85 
  "></polyline>
<g clip-path="url(#clip8201)">
<text style="fill:#000000; fill-opacity:1; font-family:Arial,Helvetica Neue,Helvetica,sans-serif; font-size:48px; text-anchor:middle;" transform="rotate(0, 473.291, 1557.47)" x="473.291" y="1557.47">2</text>
</g>
<g clip-path="url(#clip8201)">
<text style="fill:#000000; fill-opacity:1; font-family:Arial,Helvetica Neue,Helvetica,sans-serif; font-size:48px; text-anchor:middle;" transform="rotate(0, 920.2, 1557.47)" x="920.2" y="1557.47">4</text>
</g>
<g clip-path="url(#clip8201)">
<text style="fill:#000000; fill-opacity:1; font-family:Arial,Helvetica Neue,Helvetica,sans-serif; font-size:48px; text-anchor:middle;" transform="rotate(0, 1367.11, 1557.47)" x="1367.11" y="1557.47">6</text>
</g>
<g clip-path="url(#clip8201)">
<text style="fill:#000000; fill-opacity:1; font-family:Arial,Helvetica Neue,Helvetica,sans-serif; font-size:48px; text-anchor:middle;" transform="rotate(0, 1814.02, 1557.47)" x="1814.02" y="1557.47">8</text>
</g>
<g clip-path="url(#clip8201)">
<text style="fill:#000000; fill-opacity:1; font-family:Arial,Helvetica Neue,Helvetica,sans-serif; font-size:48px; text-anchor:middle;" transform="rotate(0, 2260.93, 1557.47)" x="2260.93" y="1557.47">10</text>
</g>
<g clip-path="url(#clip8201)">
<text style="fill:#000000; fill-opacity:1; font-family:Arial,Helvetica Neue,Helvetica,sans-serif; font-size:48px; text-anchor:end;" transform="rotate(0, 165.504, 1369.03)" x="165.504" y="1369.03">-0.4</text>
</g>
<g clip-path="url(#clip8201)">
<text style="fill:#000000; fill-opacity:1; font-family:Arial,Helvetica Neue,Helvetica,sans-serif; font-size:48px; text-anchor:end;" transform="rotate(0, 165.504, 1181.08)" x="165.504" y="1181.08">-0.2</text>
</g>
<g clip-path="url(#clip8201)">
<text style="fill:#000000; fill-opacity:1; font-family:Arial,Helvetica Neue,Helvetica,sans-serif; font-size:48px; text-anchor:end;" transform="rotate(0, 165.504, 993.138)" x="165.504" y="993.138">0.0</text>
</g>
<g clip-path="url(#clip8201)">
<text style="fill:#000000; fill-opacity:1; font-family:Arial,Helvetica Neue,Helvetica,sans-serif; font-size:48px; text-anchor:end;" transform="rotate(0, 165.504, 805.191)" x="165.504" y="805.191">0.2</text>
</g>
<g clip-path="url(#clip8201)">
<text style="fill:#000000; fill-opacity:1; font-family:Arial,Helvetica Neue,Helvetica,sans-serif; font-size:48px; text-anchor:end;" transform="rotate(0, 165.504, 617.244)" x="165.504" y="617.244">0.4</text>
</g>
<g clip-path="url(#clip8201)">
<text style="fill:#000000; fill-opacity:1; font-family:Arial,Helvetica Neue,Helvetica,sans-serif; font-size:48px; text-anchor:end;" transform="rotate(0, 165.504, 429.297)" x="165.504" y="429.297">0.6</text>
</g>
<g clip-path="url(#clip8201)">
<text style="fill:#000000; fill-opacity:1; font-family:Arial,Helvetica Neue,Helvetica,sans-serif; font-size:48px; text-anchor:end;" transform="rotate(0, 165.504, 241.35)" x="165.504" y="241.35">0.8</text>
</g>
<circle clip-path="url(#clip8203)" style="fill:#000000; stroke:none; fill-opacity:1" cx="249.837" cy="438.31" r="18"></circle>
<circle clip-path="url(#clip8203)" style="fill:#009af9; stroke:none; fill-opacity:1" cx="249.837" cy="438.31" r="14"></circle>
<circle clip-path="url(#clip8203)" style="fill:#000000; stroke:none; fill-opacity:1" cx="473.291" cy="264.831" r="18"></circle>
<circle clip-path="url(#clip8203)" style="fill:#009af9; stroke:none; fill-opacity:1" cx="473.291" cy="264.831" r="14"></circle>
<circle clip-path="url(#clip8203)" style="fill:#000000; stroke:none; fill-opacity:1" cx="696.746" cy="343.298" r="18"></circle>
<circle clip-path="url(#clip8203)" style="fill:#009af9; stroke:none; fill-opacity:1" cx="696.746" cy="343.298" r="14"></circle>
<circle clip-path="url(#clip8203)" style="fill:#000000; stroke:none; fill-opacity:1" cx="920.2" cy="515.181" r="18"></circle>
<circle clip-path="url(#clip8203)" style="fill:#009af9; stroke:none; fill-opacity:1" cx="920.2" cy="515.181" r="14"></circle>
<circle clip-path="url(#clip8203)" style="fill:#000000; stroke:none; fill-opacity:1" cx="1143.65" cy="645.35" r="18"></circle>
<circle clip-path="url(#clip8203)" style="fill:#009af9; stroke:none; fill-opacity:1" cx="1143.65" cy="645.35" r="14"></circle>
<circle clip-path="url(#clip8203)" style="fill:#000000; stroke:none; fill-opacity:1" cx="1367.11" cy="704.304" r="18"></circle>
<circle clip-path="url(#clip8203)" style="fill:#009af9; stroke:none; fill-opacity:1" cx="1367.11" cy="704.304" r="14"></circle>
<circle clip-path="url(#clip8203)" style="fill:#000000; stroke:none; fill-opacity:1" cx="1590.56" cy="604.547" r="18"></circle>
<circle clip-path="url(#clip8203)" style="fill:#009af9; stroke:none; fill-opacity:1" cx="1590.56" cy="604.547" r="14"></circle>
<circle clip-path="url(#clip8203)" style="fill:#000000; stroke:none; fill-opacity:1" cx="1814.02" cy="156.528" r="18"></circle>
<circle clip-path="url(#clip8203)" style="fill:#009af9; stroke:none; fill-opacity:1" cx="1814.02" cy="156.528" r="14"></circle>
<circle clip-path="url(#clip8203)" style="fill:#000000; stroke:none; fill-opacity:1" cx="2037.47" cy="573.861" r="18"></circle>
<circle clip-path="url(#clip8203)" style="fill:#009af9; stroke:none; fill-opacity:1" cx="2037.47" cy="573.861" r="14"></circle>
<circle clip-path="url(#clip8203)" style="fill:#000000; stroke:none; fill-opacity:1" cx="2260.93" cy="640.106" r="18"></circle>
<circle clip-path="url(#clip8203)" style="fill:#009af9; stroke:none; fill-opacity:1" cx="2260.93" cy="640.106" r="14"></circle>
<polyline clip-path="url(#clip8203)" style="stroke:#e26f46; stroke-width:4; stroke-opacity:1; fill:none" points="
  249.837,438.31 252.071,424.381 254.306,411.06 256.54,398.33 258.775,386.171 261.01,374.567 263.244,363.499 265.479,352.95 267.713,342.905 269.948,333.347 
  272.182,324.259 274.417,315.627 276.651,307.436 278.886,299.671 281.12,292.317 283.355,285.36 285.59,278.788 287.824,272.585 290.059,266.741 292.293,261.241 
  294.528,256.074 296.762,251.228 298.997,246.691 301.231,242.45 303.466,238.497 305.7,234.819 307.935,231.405 310.17,228.247 312.404,225.333 314.639,222.655 
  316.873,220.202 319.108,217.966 321.342,215.937 323.577,214.107 325.811,212.468 328.046,211.011 330.28,209.728 332.515,208.612 334.75,207.655 336.984,206.849 
  339.219,206.189 341.453,205.667 343.688,205.276 345.922,205.009 348.157,204.862 350.391,204.827 352.626,204.899 354.86,205.073 357.095,205.342 359.33,205.701 
  361.564,206.146 363.799,206.671 366.033,207.271 368.268,207.943 370.502,208.681 372.737,209.482 374.971,210.34 377.206,211.253 379.44,212.216 381.675,213.225 
  383.91,214.278 386.144,215.37 388.379,216.499 390.613,217.66 392.848,218.852 395.082,220.071 397.317,221.315 399.551,222.58 401.786,223.864 404.02,225.165 
  406.255,226.481 408.49,227.809 410.724,229.147 412.959,230.493 415.193,231.845 417.428,233.202 419.662,234.561 421.897,235.92 424.131,237.28 426.366,238.637 
  428.6,239.991 430.835,241.34 433.07,242.683 435.304,244.018 437.539,245.346 439.773,246.664 442.008,247.972 444.242,249.268 446.477,250.553 448.711,251.826 
  450.946,253.085 453.18,254.33 455.415,255.56 457.649,256.776 459.884,257.976 462.119,259.16 464.353,260.328 466.588,261.479 468.822,262.613 471.057,263.731 
  473.291,264.831 475.526,265.914 477.76,266.98 479.995,268.028 482.229,269.058 484.464,270.072 486.699,271.067 488.933,272.046 491.168,273.007 493.402,273.951 
  495.637,274.878 497.871,275.789 500.106,276.683 502.34,277.561 504.575,278.423 506.809,279.27 509.044,280.101 511.279,280.917 513.513,281.719 515.748,282.506 
  517.982,283.28 520.217,284.04 522.451,284.788 524.686,285.522 526.92,286.245 529.155,286.956 531.389,287.656 533.624,288.345 535.859,289.025 538.093,289.694 
  540.328,290.354 542.562,291.006 544.797,291.65 547.031,292.286 549.266,292.915 551.5,293.537 553.735,294.154 555.969,294.765 558.204,295.371 560.439,295.973 
  562.673,296.571 564.908,297.166 567.142,297.758 569.377,298.349 571.611,298.937 573.846,299.524 576.08,300.111 578.315,300.698 580.549,301.286 582.784,301.874 
  585.019,302.464 587.253,303.056 589.488,303.651 591.722,304.249 593.957,304.851 596.191,305.457 598.426,306.067 600.66,306.682 602.895,307.303 605.129,307.93 
  607.364,308.564 609.599,309.204 611.833,309.852 614.068,310.508 616.302,311.172 618.537,311.844 620.771,312.526 623.006,313.217 625.24,313.918 627.475,314.629 
  629.709,315.351 631.944,316.083 634.179,316.827 636.413,317.583 638.648,318.35 640.882,319.13 643.117,319.922 645.351,320.728 647.586,321.546 649.82,322.378 
  652.055,323.223 654.289,324.082 656.524,324.955 658.759,325.843 660.993,326.746 663.228,327.663 665.462,328.595 667.697,329.542 669.931,330.505 672.166,331.483 
  674.4,332.477 676.635,333.486 678.869,334.511 681.104,335.553 683.339,336.61 685.573,337.684 687.808,338.774 690.042,339.88 692.277,341.003 694.511,342.142 
  696.746,343.298 698.98,344.47 701.215,345.659 703.449,346.865 705.684,348.087 707.919,349.325 710.153,350.58 712.388,351.852 714.622,353.14 716.857,354.444 
  719.091,355.765 721.326,357.102 723.56,358.455 725.795,359.824 728.029,361.209 730.264,362.61 732.499,364.027 734.733,365.459 736.968,366.907 739.202,368.371 
  741.437,369.849 743.671,371.343 745.906,372.852 748.14,374.375 750.375,375.913 752.609,377.465 754.844,379.032 757.078,380.612 759.313,382.206 761.548,383.814 
  763.782,385.435 766.017,387.07 768.251,388.717 770.486,390.377 772.72,392.049 774.955,393.733 777.189,395.43 779.424,397.138 781.658,398.857 783.893,400.588 
  786.128,402.329 788.362,404.081 790.597,405.843 792.831,407.616 795.066,409.398 797.3,411.189 799.535,412.99 801.769,414.799 804.004,416.617 806.238,418.444 
  808.473,420.278 810.708,422.12 812.942,423.969 815.177,425.825 817.411,427.689 819.646,429.558 821.88,431.433 824.115,433.315 826.349,435.201 828.584,437.093 
  830.818,438.99 833.053,440.891 835.288,442.796 837.522,444.705 839.757,446.618 841.991,448.534 844.226,450.452 846.46,452.374 848.695,454.297 850.929,456.222 
  853.164,458.149 855.398,460.078 857.633,462.007 859.868,463.937 862.102,465.867 864.337,467.797 866.571,469.727 868.806,471.656 871.04,473.584 873.275,475.511 
  875.509,477.437 877.744,479.36 879.978,481.282 882.213,483.201 884.448,485.117 886.682,487.031 888.917,488.941 891.151,490.847 893.386,492.75 895.62,494.648 
  897.855,496.542 900.089,498.431 902.324,500.316 904.558,502.195 906.793,504.068 909.028,505.936 911.262,507.798 913.497,509.654 915.731,511.503 917.966,513.346 
  920.2,515.181 922.435,517.009 924.669,518.83 926.904,520.644 929.138,522.449 931.373,524.246 933.608,526.035 935.842,527.816 938.077,529.588 940.311,531.351 
  942.546,533.105 944.78,534.85 947.015,536.585 949.249,538.311 951.484,540.027 953.718,541.733 955.953,543.429 958.188,545.115 960.422,546.79 962.657,548.455 
  964.891,550.109 967.126,551.753 969.36,553.385 971.595,555.007 973.829,556.617 976.064,558.216 978.298,559.804 980.533,561.381 982.768,562.946 985.002,564.499 
  987.237,566.04 989.471,567.57 991.706,569.088 993.94,570.594 996.175,572.088 998.409,573.57 1000.64,575.04 1002.88,576.498 1005.11,577.944 1007.35,579.377 
  1009.58,580.799 1011.82,582.208 1014.05,583.604 1016.29,584.989 1018.52,586.361 1020.75,587.721 1022.99,589.069 1025.22,590.404 1027.46,591.727 1029.69,593.038 
  1031.93,594.337 1034.16,595.624 1036.4,596.898 1038.63,598.16 1040.87,599.411 1043.1,600.649 1045.33,601.875 1047.57,603.089 1049.8,604.291 1052.04,605.482 
  1054.27,606.661 1056.51,607.828 1058.74,608.983 1060.98,610.127 1063.21,611.26 1065.45,612.381 1067.68,613.491 1069.91,614.59 1072.15,615.678 1074.38,616.754 
  1076.62,617.82 1078.85,618.875 1081.09,619.92 1083.32,620.954 1085.56,621.977 1087.79,622.99 1090.03,623.993 1092.26,624.986 1094.49,625.969 1096.73,626.942 
  1098.96,627.905 1101.2,628.859 1103.43,629.804 1105.67,630.739 1107.9,631.665 1110.14,632.582 1112.37,633.49 1114.61,634.389 1116.84,635.28 1119.07,636.162 
  1121.31,637.036 1123.54,637.901 1125.78,638.759 1128.01,639.609 1130.25,640.451 1132.48,641.286 1134.72,642.113 1136.95,642.933 1139.19,643.745 1141.42,644.551 
  1143.65,645.35 1145.89,646.142 1148.12,646.928 1150.36,647.707 1152.59,648.48 1154.83,649.247 1157.06,650.007 1159.3,650.762 1161.53,651.512 1163.77,652.256 
  1166,652.994 1168.23,653.727 1170.47,654.455 1172.7,655.178 1174.94,655.896 1177.17,656.61 1179.41,657.318 1181.64,658.023 1183.88,658.723 1186.11,659.418 
  1188.35,660.11 1190.58,660.797 1192.81,661.481 1195.05,662.161 1197.28,662.837 1199.52,663.509 1201.75,664.178 1203.99,664.844 1206.22,665.506 1208.46,666.166 
  1210.69,666.822 1212.93,667.475 1215.16,668.124 1217.39,668.772 1219.63,669.416 1221.86,670.057 1224.1,670.696 1226.33,671.332 1228.57,671.965 1230.8,672.596 
  1233.04,673.225 1235.27,673.851 1237.51,674.474 1239.74,675.095 1241.97,675.713 1244.21,676.329 1246.44,676.943 1248.68,677.554 1250.91,678.163 1253.15,678.77 
  1255.38,679.374 1257.62,679.975 1259.85,680.575 1262.09,681.171 1264.32,681.765 1266.55,682.357 1268.79,682.946 1271.02,683.532 1273.26,684.115 1275.49,684.696 
  1277.73,685.273 1279.96,685.848 1282.2,686.42 1284.43,686.988 1286.67,687.553 1288.9,688.115 1291.13,688.673 1293.37,689.228 1295.6,689.779 1297.84,690.326 
  1300.07,690.869 1302.31,691.408 1304.54,691.943 1306.78,692.473 1309.01,692.998 1311.25,693.519 1313.48,694.034 1315.71,694.544 1317.95,695.049 1320.18,695.549 
  1322.42,696.042 1324.65,696.53 1326.89,697.011 1329.12,697.486 1331.36,697.954 1333.59,698.415 1335.83,698.868 1338.06,699.315 1340.29,699.753 1342.53,700.184 
  1344.76,700.606 1347,701.019 1349.23,701.424 1351.47,701.819 1353.7,702.205 1355.94,702.582 1358.17,702.948 1360.41,703.303 1362.64,703.648 1364.87,703.982 
  1367.11,704.304 1369.34,704.615 1371.58,704.913 1373.81,705.198 1376.05,705.471 1378.28,705.731 1380.52,705.977 1382.75,706.209 1384.99,706.426 1387.22,706.629 
  1389.45,706.816 1391.69,706.988 1393.92,707.143 1396.16,707.283 1398.39,707.405 1400.63,707.51 1402.86,707.597 1405.1,707.667 1407.33,707.717 1409.57,707.749 
  1411.8,707.761 1414.03,707.753 1416.27,707.724 1418.5,707.675 1420.74,707.604 1422.97,707.512 1425.21,707.397 1427.44,707.26 1429.68,707.099 1431.91,706.915 
  1434.15,706.707 1436.38,706.474 1438.61,706.216 1440.85,705.932 1443.08,705.622 1445.32,705.285 1447.55,704.922 1449.79,704.531 1452.02,704.112 1454.26,703.664 
  1456.49,703.187 1458.73,702.681 1460.96,702.145 1463.19,701.578 1465.43,700.98 1467.66,700.351 1469.9,699.69 1472.13,698.996 1474.37,698.269 1476.6,697.509 
  1478.84,696.715 1481.07,695.887 1483.31,695.024 1485.54,694.125 1487.77,693.19 1490.01,692.22 1492.24,691.212 1494.48,690.168 1496.71,689.085 1498.95,687.965 
  1501.18,686.805 1503.42,685.607 1505.65,684.37 1507.89,683.092 1510.12,681.774 1512.35,680.416 1514.59,679.016 1516.82,677.575 1519.06,676.092 1521.29,674.566 
  1523.53,672.998 1525.76,671.386 1528,669.731 1530.23,668.033 1532.47,666.289 1534.7,664.502 1536.93,662.669 1539.17,660.792 1541.4,658.868 1543.64,656.899 
  1545.87,654.884 1548.11,652.823 1550.34,650.714 1552.58,648.559 1554.81,646.357 1557.05,644.107 1559.28,641.809 1561.51,639.464 1563.75,637.07 1565.98,634.629 
  1568.22,632.138 1570.45,629.6 1572.69,627.012 1574.92,624.376 1577.16,621.691 1579.39,618.956 1581.63,616.173 1583.86,613.34 1586.09,610.459 1588.33,607.527 
  1590.56,604.547 1592.8,601.517 1595.03,598.438 1597.27,595.31 1599.5,592.133 1601.74,588.906 1603.97,585.631 1606.21,582.306 1608.44,578.933 1610.67,575.511 
  1612.91,572.041 1615.14,568.523 1617.38,564.957 1619.61,561.342 1621.85,557.681 1624.08,553.972 1626.32,550.216 1628.55,546.414 1630.79,542.565 1633.02,538.67 
  1635.25,534.73 1637.49,530.745 1639.72,526.716 1641.96,522.642 1644.19,518.524 1646.43,514.363 1648.66,510.16 1650.9,505.915 1653.13,501.628 1655.37,497.3 
  1657.6,492.932 1659.83,488.525 1662.07,484.079 1664.3,479.594 1666.54,475.073 1668.77,470.514 1671.01,465.92 1673.24,461.291 1675.48,456.628 1677.71,451.932 
  1679.95,447.203 1682.18,442.443 1684.41,437.653 1686.65,432.834 1688.88,427.985 1691.12,423.11 1693.35,418.209 1695.59,413.282 1697.82,408.332 1700.06,403.358 
  1702.29,398.364 1704.53,393.348 1706.76,388.314 1708.99,383.262 1711.23,378.194 1713.46,373.111 1715.7,368.013 1717.93,362.904 1720.17,357.784 1722.4,352.654 
  1724.64,347.517 1726.87,342.373 1729.11,337.225 1731.34,332.073 1733.57,326.92 1735.81,321.767 1738.04,316.616 1740.28,311.468 1742.51,306.326 1744.75,301.191 
  1746.98,296.064 1749.22,290.949 1751.45,285.846 1753.69,280.757 1755.92,275.685 1758.15,270.631 1760.39,265.597 1762.62,260.586 1764.86,255.599 1767.09,250.639 
  1769.33,245.707 1771.56,240.806 1773.8,235.938 1776.03,231.105 1778.27,226.309 1780.5,221.552 1782.73,216.837 1784.97,212.166 1787.2,207.541 1789.44,202.965 
  1791.67,198.44 1793.91,193.969 1796.14,189.553 1798.38,185.195 1800.61,180.898 1802.85,176.664 1805.08,172.495 1807.31,168.395 1809.55,164.365 1811.78,160.409 
  1814.02,156.528 1816.25,152.726 1818.49,149.005 1820.72,145.367 1822.96,141.816 1825.19,138.353 1827.43,134.982 1829.66,131.705 1831.89,128.526 1834.13,125.446 
  1836.36,122.468 1838.6,119.596 1840.83,116.831 1843.07,114.177 1845.3,111.636 1847.54,109.212 1849.77,106.907 1852.01,104.723 1854.24,102.663 1856.47,100.731 
  1858.71,98.9294 1860.94,97.2602 1863.18,95.7266 1865.41,94.3315 1867.65,93.0775 1869.88,91.9674 1872.12,91.0041 1874.35,90.1902 1876.59,89.5285 1878.82,89.0217 
  1881.05,88.6726 1883.29,88.4838 1885.52,88.4582 1887.76,88.5982 1889.99,88.9067 1892.23,89.3862 1894.46,90.0394 1896.7,90.8688 1898.93,91.8771 1901.17,93.0667 
  1903.4,94.4402 1905.63,96.0001 1907.87,97.7487 1910.1,99.6886 1912.34,101.822 1914.57,104.152 1916.81,106.679 1919.04,109.408 1921.28,112.338 1923.51,115.474 
  1925.75,118.817 1927.98,122.369 1930.21,126.132 1932.45,130.108 1934.68,134.299 1936.92,138.707 1939.15,143.333 1941.39,148.179 1943.62,153.248 1945.86,158.54 
  1948.09,164.056 1950.33,169.799 1952.56,175.77 1954.79,181.97 1957.03,188.4 1959.26,195.061 1961.5,201.954 1963.73,209.081 1965.97,216.441 1968.2,224.036 
  1970.44,231.866 1972.67,239.931 1974.91,248.233 1977.14,256.771 1979.37,265.545 1981.61,274.556 1983.84,283.804 1986.08,293.287 1988.31,303.006 1990.55,312.961 
  1992.78,323.15 1995.02,333.574 1997.25,344.23 1999.49,355.118 2001.72,366.237 2003.95,377.585 2006.19,389.161 2008.42,400.963 2010.66,412.99 2012.89,425.238 
  2015.13,437.707 2017.36,450.393 2019.6,463.294 2021.83,476.407 2024.07,489.729 2026.3,503.257 2028.53,516.988 2030.77,530.917 2033,545.042 2035.24,559.358 
  2037.47,573.861 2039.71,588.546 2041.94,603.408 2044.18,618.443 2046.41,633.646 2048.65,649.01 2050.88,664.531 2053.11,680.201 2055.35,696.015 2057.58,711.967 
  2059.82,728.049 2062.05,744.255 2064.29,760.576 2066.52,777.006 2068.76,793.535 2070.99,810.157 2073.23,826.862 2075.46,843.641 2077.69,860.486 2079.93,877.385 
  2082.16,894.33 2084.4,911.311 2086.63,928.315 2088.87,945.333 2091.1,962.353 2093.34,979.363 2095.57,996.351 2097.81,1013.3 2100.04,1030.21 2102.27,1047.06 
  2104.51,1063.83 2106.74,1080.51 2108.98,1097.09 2111.21,1113.55 2113.45,1129.87 2115.68,1146.05 2117.92,1162.06 2120.15,1177.88 2122.39,1193.51 2124.62,1208.91 
  2126.85,1224.08 2129.09,1239 2131.32,1253.64 2133.56,1267.98 2135.79,1282.01 2138.03,1295.7 2140.26,1309.03 2142.5,1321.99 2144.73,1334.54 2146.97,1346.67 
  2149.2,1358.34 2151.43,1369.55 2153.67,1380.25 2155.9,1390.43 2158.14,1400.06 2160.37,1409.12 2162.61,1417.56 2164.84,1425.38 2167.08,1432.53 2169.31,1438.99 
  2171.55,1444.74 2173.78,1449.72 2176.01,1453.93 2178.25,1457.32 2180.48,1459.86 2182.72,1461.52 2184.95,1462.26 2187.19,1462.05 2189.42,1460.85 2191.66,1458.63 
  2193.89,1455.34 2196.13,1450.95 2198.36,1445.42 2200.59,1438.71 2202.83,1430.79 2205.06,1421.59 2207.3,1411.09 2209.53,1399.25 2211.77,1386.01 2214,1371.33 
  2216.24,1355.16 2218.47,1337.47 2220.71,1318.19 2222.94,1297.28 2225.17,1274.7 2227.41,1250.38 2229.64,1224.29 2231.88,1196.35 2234.11,1166.53 2236.35,1134.76 
  2238.58,1100.99 2240.82,1065.17 2243.05,1027.22 2245.29,987.102 2247.52,944.746 2249.75,900.092 2251.99,853.077 2254.22,803.636 2256.46,751.705 2258.69,697.218 
  2260.93,640.106 
  "></polyline>
<polyline clip-path="url(#clip8203)" style="stroke:#3da44d; stroke-width:4; stroke-opacity:1; fill:none" points="
  249.837,438.31 252.071,436.575 254.306,434.84 256.54,433.105 258.775,431.371 261.01,429.636 263.244,427.901 265.479,426.166 267.713,424.431 269.948,422.697 
  272.182,420.962 274.417,419.227 276.651,417.492 278.886,415.758 281.12,414.023 283.355,412.288 285.59,410.553 287.824,408.818 290.059,407.084 292.293,405.349 
  294.528,403.614 296.762,401.879 298.997,400.144 301.231,398.41 303.466,396.675 305.7,394.94 307.935,393.205 310.17,391.471 312.404,389.736 314.639,388.001 
  316.873,386.266 319.108,384.531 321.342,382.797 323.577,381.062 325.811,379.327 328.046,377.592 330.28,375.857 332.515,374.123 334.75,372.388 336.984,370.653 
  339.219,368.918 341.453,367.184 343.688,365.449 345.922,363.714 348.157,361.979 350.391,360.244 352.626,358.51 354.86,356.775 357.095,355.04 359.33,353.305 
  361.564,351.57 363.799,349.836 366.033,348.101 368.268,346.366 370.502,344.631 372.737,342.897 374.971,341.162 377.206,339.427 379.44,337.692 381.675,335.957 
  383.91,334.223 386.144,332.488 388.379,330.753 390.613,329.018 392.848,327.283 395.082,325.549 397.317,323.814 399.551,322.079 401.786,320.344 404.02,318.61 
  406.255,316.875 408.49,315.14 410.724,313.405 412.959,311.67 415.193,309.936 417.428,308.201 419.662,306.466 421.897,304.731 424.131,302.996 426.366,301.262 
  428.6,299.527 430.835,297.792 433.07,296.057 435.304,294.323 437.539,292.588 439.773,290.853 442.008,289.118 444.242,287.383 446.477,285.649 448.711,283.914 
  450.946,282.179 453.18,280.444 455.415,278.709 457.649,276.975 459.884,275.24 462.119,273.505 464.353,271.77 466.588,270.036 468.822,268.301 471.057,266.566 
  473.291,264.831 475.526,265.616 477.76,266.401 479.995,267.185 482.229,267.97 484.464,268.755 486.699,269.539 488.933,270.324 491.168,271.109 493.402,271.893 
  495.637,272.678 497.871,273.463 500.106,274.247 502.34,275.032 504.575,275.817 506.809,276.601 509.044,277.386 511.279,278.171 513.513,278.955 515.748,279.74 
  517.982,280.525 520.217,281.309 522.451,282.094 524.686,282.879 526.92,283.663 529.155,284.448 531.389,285.233 533.624,286.017 535.859,286.802 538.093,287.587 
  540.328,288.371 542.562,289.156 544.797,289.941 547.031,290.725 549.266,291.51 551.5,292.295 553.735,293.079 555.969,293.864 558.204,294.649 560.439,295.433 
  562.673,296.218 564.908,297.003 567.142,297.787 569.377,298.572 571.611,299.357 573.846,300.141 576.08,300.926 578.315,301.711 580.549,302.495 582.784,303.28 
  585.019,304.065 587.253,304.849 589.488,305.634 591.722,306.419 593.957,307.203 596.191,307.988 598.426,308.773 600.66,309.557 602.895,310.342 605.129,311.127 
  607.364,311.911 609.599,312.696 611.833,313.481 614.068,314.265 616.302,315.05 618.537,315.835 620.771,316.619 623.006,317.404 625.24,318.189 627.475,318.973 
  629.709,319.758 631.944,320.543 634.179,321.327 636.413,322.112 638.648,322.897 640.882,323.681 643.117,324.466 645.351,325.251 647.586,326.035 649.82,326.82 
  652.055,327.605 654.289,328.389 656.524,329.174 658.759,329.959 660.993,330.743 663.228,331.528 665.462,332.313 667.697,333.097 669.931,333.882 672.166,334.667 
  674.4,335.451 676.635,336.236 678.869,337.021 681.104,337.806 683.339,338.59 685.573,339.375 687.808,340.16 690.042,340.944 692.277,341.729 694.511,342.514 
  696.746,343.298 698.98,345.017 701.215,346.736 703.449,348.455 705.684,350.174 707.919,351.892 710.153,353.611 712.388,355.33 714.622,357.049 716.857,358.768 
  719.091,360.486 721.326,362.205 723.56,363.924 725.795,365.643 728.029,367.362 730.264,369.081 732.499,370.799 734.733,372.518 736.968,374.237 739.202,375.956 
  741.437,377.675 743.671,379.394 745.906,381.112 748.14,382.831 750.375,384.55 752.609,386.269 754.844,387.988 757.078,389.707 759.313,391.425 761.548,393.144 
  763.782,394.863 766.017,396.582 768.251,398.301 770.486,400.02 772.72,401.738 774.955,403.457 777.189,405.176 779.424,406.895 781.658,408.614 783.893,410.333 
  786.128,412.051 788.362,413.77 790.597,415.489 792.831,417.208 795.066,418.927 797.3,420.645 799.535,422.364 801.769,424.083 804.004,425.802 806.238,427.521 
  808.473,429.24 810.708,430.958 812.942,432.677 815.177,434.396 817.411,436.115 819.646,437.834 821.88,439.553 824.115,441.271 826.349,442.99 828.584,444.709 
  830.818,446.428 833.053,448.147 835.288,449.866 837.522,451.584 839.757,453.303 841.991,455.022 844.226,456.741 846.46,458.46 848.695,460.179 850.929,461.897 
  853.164,463.616 855.398,465.335 857.633,467.054 859.868,468.773 862.102,470.492 864.337,472.21 866.571,473.929 868.806,475.648 871.04,477.367 873.275,479.086 
  875.509,480.804 877.744,482.523 879.978,484.242 882.213,485.961 884.448,487.68 886.682,489.399 888.917,491.117 891.151,492.836 893.386,494.555 895.62,496.274 
  897.855,497.993 900.089,499.712 902.324,501.43 904.558,503.149 906.793,504.868 909.028,506.587 911.262,508.306 913.497,510.025 915.731,511.743 917.966,513.462 
  920.2,515.181 922.435,516.483 924.669,517.784 926.904,519.086 929.138,520.388 931.373,521.69 933.608,522.991 935.842,524.293 938.077,525.595 940.311,526.896 
  942.546,528.198 944.78,529.5 947.015,530.801 949.249,532.103 951.484,533.405 953.718,534.706 955.953,536.008 958.188,537.31 960.422,538.611 962.657,539.913 
  964.891,541.215 967.126,542.517 969.36,543.818 971.595,545.12 973.829,546.422 976.064,547.723 978.298,549.025 980.533,550.327 982.768,551.628 985.002,552.93 
  987.237,554.232 989.471,555.533 991.706,556.835 993.94,558.137 996.175,559.438 998.409,560.74 1000.64,562.042 1002.88,563.344 1005.11,564.645 1007.35,565.947 
  1009.58,567.249 1011.82,568.55 1014.05,569.852 1016.29,571.154 1018.52,572.455 1020.75,573.757 1022.99,575.059 1025.22,576.36 1027.46,577.662 1029.69,578.964 
  1031.93,580.265 1034.16,581.567 1036.4,582.869 1038.63,584.171 1040.87,585.472 1043.1,586.774 1045.33,588.076 1047.57,589.377 1049.8,590.679 1052.04,591.981 
  1054.27,593.282 1056.51,594.584 1058.74,595.886 1060.98,597.187 1063.21,598.489 1065.45,599.791 1067.68,601.092 1069.91,602.394 1072.15,603.696 1074.38,604.998 
  1076.62,606.299 1078.85,607.601 1081.09,608.903 1083.32,610.204 1085.56,611.506 1087.79,612.808 1090.03,614.109 1092.26,615.411 1094.49,616.713 1096.73,618.014 
  1098.96,619.316 1101.2,620.618 1103.43,621.919 1105.67,623.221 1107.9,624.523 1110.14,625.825 1112.37,627.126 1114.61,628.428 1116.84,629.73 1119.07,631.031 
  1121.31,632.333 1123.54,633.635 1125.78,634.936 1128.01,636.238 1130.25,637.54 1132.48,638.841 1134.72,640.143 1136.95,641.445 1139.19,642.746 1141.42,644.048 
  1143.65,645.35 1145.89,645.939 1148.12,646.529 1150.36,647.118 1152.59,647.708 1154.83,648.298 1157.06,648.887 1159.3,649.477 1161.53,650.066 1163.77,650.656 
  1166,651.245 1168.23,651.835 1170.47,652.424 1172.7,653.014 1174.94,653.603 1177.17,654.193 1179.41,654.783 1181.64,655.372 1183.88,655.962 1186.11,656.551 
  1188.35,657.141 1190.58,657.73 1192.81,658.32 1195.05,658.909 1197.28,659.499 1199.52,660.088 1201.75,660.678 1203.99,661.267 1206.22,661.857 1208.46,662.447 
  1210.69,663.036 1212.93,663.626 1215.16,664.215 1217.39,664.805 1219.63,665.394 1221.86,665.984 1224.1,666.573 1226.33,667.163 1228.57,667.752 1230.8,668.342 
  1233.04,668.932 1235.27,669.521 1237.51,670.111 1239.74,670.7 1241.97,671.29 1244.21,671.879 1246.44,672.469 1248.68,673.058 1250.91,673.648 1253.15,674.237 
  1255.38,674.827 1257.62,675.416 1259.85,676.006 1262.09,676.596 1264.32,677.185 1266.55,677.775 1268.79,678.364 1271.02,678.954 1273.26,679.543 1275.49,680.133 
  1277.73,680.722 1279.96,681.312 1282.2,681.901 1284.43,682.491 1286.67,683.081 1288.9,683.67 1291.13,684.26 1293.37,684.849 1295.6,685.439 1297.84,686.028 
  1300.07,686.618 1302.31,687.207 1304.54,687.797 1306.78,688.386 1309.01,688.976 1311.25,689.566 1313.48,690.155 1315.71,690.745 1317.95,691.334 1320.18,691.924 
  1322.42,692.513 1324.65,693.103 1326.89,693.692 1329.12,694.282 1331.36,694.871 1333.59,695.461 1335.83,696.05 1338.06,696.64 1340.29,697.23 1342.53,697.819 
  1344.76,698.409 1347,698.998 1349.23,699.588 1351.47,700.177 1353.7,700.767 1355.94,701.356 1358.17,701.946 1360.41,702.535 1362.64,703.125 1364.87,703.715 
  1367.11,704.304 1369.34,703.307 1371.58,702.309 1373.81,701.311 1376.05,700.314 1378.28,699.316 1380.52,698.319 1382.75,697.321 1384.99,696.324 1387.22,695.326 
  1389.45,694.328 1391.69,693.331 1393.92,692.333 1396.16,691.336 1398.39,690.338 1400.63,689.341 1402.86,688.343 1405.1,687.345 1407.33,686.348 1409.57,685.35 
  1411.8,684.353 1414.03,683.355 1416.27,682.358 1418.5,681.36 1420.74,680.362 1422.97,679.365 1425.21,678.367 1427.44,677.37 1429.68,676.372 1431.91,675.375 
  1434.15,674.377 1436.38,673.379 1438.61,672.382 1440.85,671.384 1443.08,670.387 1445.32,669.389 1447.55,668.392 1449.79,667.394 1452.02,666.396 1454.26,665.399 
  1456.49,664.401 1458.73,663.404 1460.96,662.406 1463.19,661.409 1465.43,660.411 1467.66,659.413 1469.9,658.416 1472.13,657.418 1474.37,656.421 1476.6,655.423 
  1478.84,654.426 1481.07,653.428 1483.31,652.43 1485.54,651.433 1487.77,650.435 1490.01,649.438 1492.24,648.44 1494.48,647.443 1496.71,646.445 1498.95,645.447 
  1501.18,644.45 1503.42,643.452 1505.65,642.455 1507.89,641.457 1510.12,640.46 1512.35,639.462 1514.59,638.464 1516.82,637.467 1519.06,636.469 1521.29,635.472 
  1523.53,634.474 1525.76,633.477 1528,632.479 1530.23,631.481 1532.47,630.484 1534.7,629.486 1536.93,628.489 1539.17,627.491 1541.4,626.494 1543.64,625.496 
  1545.87,624.498 1548.11,623.501 1550.34,622.503 1552.58,621.506 1554.81,620.508 1557.05,619.511 1559.28,618.513 1561.51,617.515 1563.75,616.518 1565.98,615.52 
  1568.22,614.523 1570.45,613.525 1572.69,612.528 1574.92,611.53 1577.16,610.532 1579.39,609.535 1581.63,608.537 1583.86,607.54 1586.09,606.542 1588.33,605.545 
  1590.56,604.547 1592.8,600.067 1595.03,595.587 1597.27,591.106 1599.5,586.626 1601.74,582.146 1603.97,577.666 1606.21,573.186 1608.44,568.705 1610.67,564.225 
  1612.91,559.745 1615.14,555.265 1617.38,550.785 1619.61,546.305 1621.85,541.824 1624.08,537.344 1626.32,532.864 1628.55,528.384 1630.79,523.904 1633.02,519.423 
  1635.25,514.943 1637.49,510.463 1639.72,505.983 1641.96,501.503 1644.19,497.022 1646.43,492.542 1648.66,488.062 1650.9,483.582 1653.13,479.102 1655.37,474.622 
  1657.6,470.141 1659.83,465.661 1662.07,461.181 1664.3,456.701 1666.54,452.221 1668.77,447.74 1671.01,443.26 1673.24,438.78 1675.48,434.3 1677.71,429.82 
  1679.95,425.34 1682.18,420.859 1684.41,416.379 1686.65,411.899 1688.88,407.419 1691.12,402.939 1693.35,398.458 1695.59,393.978 1697.82,389.498 1700.06,385.018 
  1702.29,380.538 1704.53,376.057 1706.76,371.577 1708.99,367.097 1711.23,362.617 1713.46,358.137 1715.7,353.657 1717.93,349.176 1720.17,344.696 1722.4,340.216 
  1724.64,335.736 1726.87,331.256 1729.11,326.775 1731.34,322.295 1733.57,317.815 1735.81,313.335 1738.04,308.855 1740.28,304.374 1742.51,299.894 1744.75,295.414 
  1746.98,290.934 1749.22,286.454 1751.45,281.974 1753.69,277.493 1755.92,273.013 1758.15,268.533 1760.39,264.053 1762.62,259.573 1764.86,255.092 1767.09,250.612 
  1769.33,246.132 1771.56,241.652 1773.8,237.172 1776.03,232.691 1778.27,228.211 1780.5,223.731 1782.73,219.251 1784.97,214.771 1787.2,210.291 1789.44,205.81 
  1791.67,201.33 1793.91,196.85 1796.14,192.37 1798.38,187.89 1800.61,183.409 1802.85,178.929 1805.08,174.449 1807.31,169.969 1809.55,165.489 1811.78,161.009 
  1814.02,156.528 1816.25,160.702 1818.49,164.875 1820.72,169.048 1822.96,173.222 1825.19,177.395 1827.43,181.568 1829.66,185.742 1831.89,189.915 1834.13,194.088 
  1836.36,198.262 1838.6,202.435 1840.83,206.608 1843.07,210.782 1845.3,214.955 1847.54,219.128 1849.77,223.302 1852.01,227.475 1854.24,231.648 1856.47,235.821 
  1858.71,239.995 1860.94,244.168 1863.18,248.341 1865.41,252.515 1867.65,256.688 1869.88,260.861 1872.12,265.035 1874.35,269.208 1876.59,273.381 1878.82,277.555 
  1881.05,281.728 1883.29,285.901 1885.52,290.075 1887.76,294.248 1889.99,298.421 1892.23,302.595 1894.46,306.768 1896.7,310.941 1898.93,315.115 1901.17,319.288 
  1903.4,323.461 1905.63,327.635 1907.87,331.808 1910.1,335.981 1912.34,340.155 1914.57,344.328 1916.81,348.501 1919.04,352.675 1921.28,356.848 1923.51,361.021 
  1925.75,365.195 1927.98,369.368 1930.21,373.541 1932.45,377.715 1934.68,381.888 1936.92,386.061 1939.15,390.235 1941.39,394.408 1943.62,398.581 1945.86,402.754 
  1948.09,406.928 1950.33,411.101 1952.56,415.274 1954.79,419.448 1957.03,423.621 1959.26,427.794 1961.5,431.968 1963.73,436.141 1965.97,440.314 1968.2,444.488 
  1970.44,448.661 1972.67,452.834 1974.91,457.008 1977.14,461.181 1979.37,465.354 1981.61,469.528 1983.84,473.701 1986.08,477.874 1988.31,482.048 1990.55,486.221 
  1992.78,490.394 1995.02,494.568 1997.25,498.741 1999.49,502.914 2001.72,507.088 2003.95,511.261 2006.19,515.434 2008.42,519.608 2010.66,523.781 2012.89,527.954 
  2015.13,532.128 2017.36,536.301 2019.6,540.474 2021.83,544.648 2024.07,548.821 2026.3,552.994 2028.53,557.168 2030.77,561.341 2033,565.514 2035.24,569.687 
  2037.47,573.861 2039.71,574.523 2041.94,575.186 2044.18,575.848 2046.41,576.511 2048.65,577.173 2050.88,577.836 2053.11,578.498 2055.35,579.16 2057.58,579.823 
  2059.82,580.485 2062.05,581.148 2064.29,581.81 2066.52,582.473 2068.76,583.135 2070.99,583.798 2073.23,584.46 2075.46,585.122 2077.69,585.785 2079.93,586.447 
  2082.16,587.11 2084.4,587.772 2086.63,588.435 2088.87,589.097 2091.1,589.76 2093.34,590.422 2095.57,591.084 2097.81,591.747 2100.04,592.409 2102.27,593.072 
  2104.51,593.734 2106.74,594.397 2108.98,595.059 2111.21,595.722 2113.45,596.384 2115.68,597.046 2117.92,597.709 2120.15,598.371 2122.39,599.034 2124.62,599.696 
  2126.85,600.359 2129.09,601.021 2131.32,601.684 2133.56,602.346 2135.79,603.008 2138.03,603.671 2140.26,604.333 2142.5,604.996 2144.73,605.658 2146.97,606.321 
  2149.2,606.983 2151.43,607.646 2153.67,608.308 2155.9,608.971 2158.14,609.633 2160.37,610.295 2162.61,610.958 2164.84,611.62 2167.08,612.283 2169.31,612.945 
  2171.55,613.608 2173.78,614.27 2176.01,614.933 2178.25,615.595 2180.48,616.257 2182.72,616.92 2184.95,617.582 2187.19,618.245 2189.42,618.907 2191.66,619.57 
  2193.89,620.232 2196.13,620.895 2198.36,621.557 2200.59,622.219 2202.83,622.882 2205.06,623.544 2207.3,624.207 2209.53,624.869 2211.77,625.532 2214,626.194 
  2216.24,626.857 2218.47,627.519 2220.71,628.181 2222.94,628.844 2225.17,629.506 2227.41,630.169 2229.64,630.831 2231.88,631.494 2234.11,632.156 2236.35,632.819 
  2238.58,633.481 2240.82,634.144 2243.05,634.806 2245.29,635.468 2247.52,636.131 2249.75,636.793 2251.99,637.456 2254.22,638.118 2256.46,638.781 2258.69,639.443 
  2260.93,640.106 
  "></polyline>
<polyline clip-path="url(#clip8203)" style="stroke:#c271d2; stroke-width:4; stroke-opacity:1; fill:none" points="
  249.837,438.31 252.071,435.971 254.306,433.633 256.54,431.296 258.775,428.96 261.01,426.625 263.244,424.292 265.479,421.961 267.713,419.633 269.948,417.307 
  272.182,414.985 274.417,412.667 276.651,410.352 278.886,408.042 281.12,405.737 283.355,403.436 285.59,401.141 287.824,398.852 290.059,396.569 292.293,394.293 
  294.528,392.023 296.762,389.761 298.997,387.506 301.231,385.259 303.466,383.021 305.7,380.791 307.935,378.57 310.17,376.359 312.404,374.157 314.639,371.966 
  316.873,369.785 319.108,367.615 321.342,365.456 323.577,363.309 325.811,361.174 328.046,359.051 330.28,356.941 332.515,354.844 334.75,352.76 336.984,350.69 
  339.219,348.634 341.453,346.593 343.688,344.566 345.922,342.555 348.157,340.559 350.391,338.579 352.626,336.616 354.86,334.669 357.095,332.739 359.33,330.826 
  361.564,328.932 363.799,327.055 366.033,325.197 368.268,323.358 370.502,321.538 372.737,319.737 374.971,317.957 377.206,316.196 379.44,314.457 381.675,312.738 
  383.91,311.041 386.144,309.365 388.379,307.712 390.613,306.081 392.848,304.472 395.082,302.887 397.317,301.326 399.551,299.788 401.786,298.275 404.02,296.786 
  406.255,295.323 408.49,293.884 410.724,292.472 412.959,291.085 415.193,289.725 417.428,288.392 419.662,287.086 421.897,285.807 424.131,284.557 426.366,283.334 
  428.6,282.14 430.835,280.976 433.07,279.84 435.304,278.734 437.539,277.659 439.773,276.613 442.008,275.599 444.242,274.615 446.477,273.663 448.711,272.744 
  450.946,271.856 453.18,271.001 455.415,270.178 457.649,269.39 459.884,268.634 462.119,267.913 464.353,267.227 466.588,266.575 468.822,265.958 471.057,265.377 
  473.291,264.831 475.526,264.322 477.76,263.848 479.995,263.411 482.229,263.008 484.464,262.641 486.699,262.308 488.933,262.01 491.168,261.746 493.402,261.515 
  495.637,261.319 497.871,261.155 500.106,261.024 502.34,260.926 504.575,260.861 506.809,260.827 509.044,260.825 511.279,260.854 513.513,260.915 515.748,261.007 
  517.982,261.129 520.217,261.281 522.451,261.463 524.686,261.675 526.92,261.916 529.155,262.186 531.389,262.485 533.624,262.812 535.859,263.168 538.093,263.551 
  540.328,263.962 542.562,264.4 544.797,264.865 547.031,265.357 549.266,265.875 551.5,266.419 553.735,266.989 555.969,267.584 558.204,268.204 560.439,268.85 
  562.673,269.519 564.908,270.213 567.142,270.931 569.377,271.673 571.611,272.438 573.846,273.226 576.08,274.037 578.315,274.87 580.549,275.725 582.784,276.603 
  585.019,277.501 587.253,278.421 589.488,279.362 591.722,280.324 593.957,281.306 596.191,282.308 598.426,283.33 600.66,284.371 602.895,285.431 605.129,286.51 
  607.364,287.608 609.599,288.724 611.833,289.858 614.068,291.01 616.302,292.179 618.537,293.365 620.771,294.568 623.006,295.787 625.24,297.023 627.475,298.274 
  629.709,299.541 631.944,300.823 634.179,302.12 636.413,303.432 638.648,304.758 640.882,306.098 643.117,307.452 645.351,308.82 647.586,310.2 649.82,311.594 
  652.055,313 654.289,314.418 656.524,315.848 658.759,317.29 660.993,318.743 663.228,320.208 665.462,321.683 667.697,323.169 669.931,324.664 672.166,326.17 
  674.4,327.685 676.635,329.21 678.869,330.743 681.104,332.285 683.339,333.836 685.573,335.394 687.808,336.961 690.042,338.535 692.277,340.116 694.511,341.704 
  696.746,343.298 698.98,344.899 701.215,346.506 703.449,348.119 705.684,349.738 707.919,351.363 710.153,352.993 712.388,354.629 714.622,356.271 716.857,357.918 
  719.091,359.57 721.326,361.227 723.56,362.889 725.795,364.556 728.029,366.228 730.264,367.905 732.499,369.586 734.733,371.272 736.968,372.961 739.202,374.655 
  741.437,376.354 743.671,378.056 745.906,379.762 748.14,381.471 750.375,383.185 752.609,384.901 754.844,386.622 757.078,388.345 759.313,390.072 761.548,391.801 
  763.782,393.534 766.017,395.269 768.251,397.007 770.486,398.748 772.72,400.491 774.955,402.237 777.189,403.984 779.424,405.734 781.658,407.486 783.893,409.24 
  786.128,410.995 788.362,412.752 790.597,414.511 792.831,416.271 795.066,418.032 797.3,419.795 799.535,421.559 801.769,423.323 804.004,425.089 806.238,426.855 
  808.473,428.622 810.708,430.389 812.942,432.156 815.177,433.924 817.411,435.692 819.646,437.46 821.88,439.228 824.115,440.996 826.349,442.764 828.584,444.531 
  830.818,446.297 833.053,448.063 835.288,449.828 837.522,451.592 839.757,453.356 841.991,455.118 844.226,456.878 846.46,458.638 848.695,460.396 850.929,462.152 
  853.164,463.907 855.398,465.66 857.633,467.411 859.868,469.16 862.102,470.906 864.337,472.651 866.571,474.393 868.806,476.132 871.04,477.869 873.275,479.603 
  875.509,481.335 877.744,483.063 879.978,484.788 882.213,486.51 884.448,488.229 886.682,489.944 888.917,491.656 891.151,493.364 893.386,495.068 895.62,496.768 
  897.855,498.464 900.089,500.157 902.324,501.845 904.558,503.528 906.793,505.207 909.028,506.882 911.262,508.551 913.497,510.216 915.731,511.876 917.966,513.531 
  920.2,515.181 922.435,516.826 924.669,518.465 926.904,520.098 929.138,521.727 931.373,523.35 933.608,524.967 935.842,526.579 938.077,528.185 940.311,529.785 
  942.546,531.38 944.78,532.969 947.015,534.552 949.249,536.129 951.484,537.7 953.718,539.266 955.953,540.825 958.188,542.378 960.422,543.925 962.657,545.466 
  964.891,547.001 967.126,548.529 969.36,550.052 971.595,551.567 973.829,553.077 976.064,554.58 978.298,556.076 980.533,557.566 982.768,559.049 985.002,560.526 
  987.237,561.996 989.471,563.459 991.706,564.915 993.94,566.365 996.175,567.808 998.409,569.243 1000.64,570.672 1002.88,572.094 1005.11,573.508 1007.35,574.916 
  1009.58,576.316 1011.82,577.709 1014.05,579.095 1016.29,580.473 1018.52,581.844 1020.75,583.208 1022.99,584.564 1025.22,585.913 1027.46,587.254 1029.69,588.587 
  1031.93,589.913 1034.16,591.231 1036.4,592.541 1038.63,593.844 1040.87,595.139 1043.1,596.425 1045.33,597.704 1047.57,598.975 1049.8,600.237 1052.04,601.492 
  1054.27,602.738 1056.51,603.977 1058.74,605.206 1060.98,606.428 1063.21,607.641 1065.45,608.846 1067.68,610.043 1069.91,611.231 1072.15,612.41 1074.38,613.581 
  1076.62,614.743 1078.85,615.897 1081.09,617.041 1083.32,618.177 1085.56,619.304 1087.79,620.423 1090.03,621.532 1092.26,622.632 1094.49,623.724 1096.73,624.806 
  1098.96,625.879 1101.2,626.943 1103.43,627.998 1105.67,629.043 1107.9,630.079 1110.14,631.106 1112.37,632.123 1114.61,633.131 1116.84,634.129 1119.07,635.118 
  1121.31,636.097 1123.54,637.067 1125.78,638.027 1128.01,638.977 1130.25,639.917 1132.48,640.847 1134.72,641.768 1136.95,642.678 1139.19,643.579 1141.42,644.469 
  1143.65,645.35 1145.89,646.22 1148.12,647.08 1150.36,647.931 1152.59,648.771 1154.83,649.602 1157.06,650.424 1159.3,651.236 1161.53,652.039 1163.77,652.833 
  1166,653.618 1168.23,654.394 1170.47,655.161 1172.7,655.92 1174.94,656.671 1177.17,657.413 1179.41,658.147 1181.64,658.873 1183.88,659.591 1186.11,660.301 
  1188.35,661.004 1190.58,661.7 1192.81,662.387 1195.05,663.068 1197.28,663.742 1199.52,664.408 1201.75,665.068 1203.99,665.721 1206.22,666.368 1208.46,667.008 
  1210.69,667.642 1212.93,668.27 1215.16,668.891 1217.39,669.507 1219.63,670.117 1221.86,670.721 1224.1,671.32 1226.33,671.914 1228.57,672.502 1230.8,673.085 
  1233.04,673.664 1235.27,674.237 1237.51,674.806 1239.74,675.37 1241.97,675.93 1244.21,676.485 1246.44,677.036 1248.68,677.584 1250.91,678.127 1253.15,678.666 
  1255.38,679.202 1257.62,679.735 1259.85,680.264 1262.09,680.79 1264.32,681.312 1266.55,681.832 1268.79,682.349 1271.02,682.863 1273.26,683.375 1275.49,683.884 
  1277.73,684.391 1279.96,684.896 1282.2,685.399 1284.43,685.899 1286.67,686.398 1288.9,686.896 1291.13,687.392 1293.37,687.886 1295.6,688.379 1297.84,688.872 
  1300.07,689.363 1302.31,689.853 1304.54,690.343 1306.78,690.832 1309.01,691.32 1311.25,691.809 1313.48,692.297 1315.71,692.785 1317.95,693.273 1320.18,693.762 
  1322.42,694.25 1324.65,694.739 1326.89,695.229 1329.12,695.72 1331.36,696.211 1333.59,696.704 1335.83,697.198 1338.06,697.693 1340.29,698.189 1342.53,698.687 
  1344.76,699.186 1347,699.688 1349.23,700.191 1351.47,700.697 1353.7,701.204 1355.94,701.714 1358.17,702.227 1360.41,702.742 1362.64,703.26 1364.87,703.78 
  1367.11,704.304 1369.34,704.831 1371.58,705.36 1373.81,705.89 1376.05,706.42 1378.28,706.949 1380.52,707.476 1382.75,708 1384.99,708.521 1387.22,709.036 
  1389.45,709.546 1391.69,710.049 1393.92,710.544 1396.16,711.029 1398.39,711.505 1400.63,711.97 1402.86,712.423 1405.1,712.863 1407.33,713.289 1409.57,713.7 
  1411.8,714.095 1414.03,714.472 1416.27,714.832 1418.5,715.173 1420.74,715.494 1422.97,715.794 1425.21,716.071 1427.44,716.326 1429.68,716.557 1431.91,716.762 
  1434.15,716.941 1436.38,717.094 1438.61,717.218 1440.85,717.313 1443.08,717.378 1445.32,717.412 1447.55,717.413 1449.79,717.382 1452.02,717.316 1454.26,717.216 
  1456.49,717.079 1458.73,716.905 1460.96,716.692 1463.19,716.441 1465.43,716.149 1467.66,715.816 1469.9,715.441 1472.13,715.023 1474.37,714.56 1476.6,714.052 
  1478.84,713.498 1481.07,712.897 1483.31,712.247 1485.54,711.548 1487.77,710.799 1490.01,709.999 1492.24,709.146 1494.48,708.24 1496.71,707.279 1498.95,706.264 
  1501.18,705.192 1503.42,704.062 1505.65,702.875 1507.89,701.628 1510.12,700.32 1512.35,698.951 1514.59,697.52 1516.82,696.026 1519.06,694.467 1521.29,692.842 
  1523.53,691.152 1525.76,689.393 1528,687.567 1530.23,685.671 1532.47,683.704 1534.7,681.666 1536.93,679.556 1539.17,677.372 1541.4,675.114 1543.64,672.78 
  1545.87,670.369 1548.11,667.882 1550.34,665.315 1552.58,662.669 1554.81,659.943 1557.05,657.135 1559.28,654.245 1561.51,651.271 1563.75,648.212 1565.98,645.068 
  1568.22,641.837 1570.45,638.519 1572.69,635.112 1574.92,631.616 1577.16,628.029 1579.39,624.35 1581.63,620.579 1583.86,616.714 1586.09,612.754 1588.33,608.699 
  1590.56,604.547 1592.8,600.298 1595.03,595.954 1597.27,591.518 1599.5,586.993 1601.74,582.381 1603.97,577.685 1606.21,572.908 1608.44,568.053 1610.67,563.123 
  1612.91,558.119 1615.14,553.045 1617.38,547.905 1619.61,542.699 1621.85,537.432 1624.08,532.106 1626.32,526.723 1628.55,521.288 1630.79,515.801 1633.02,510.267 
  1635.25,504.687 1637.49,499.065 1639.72,493.403 1641.96,487.704 1644.19,481.972 1646.43,476.208 1648.66,470.415 1650.9,464.596 1653.13,458.754 1655.37,452.892 
  1657.6,447.013 1659.83,441.118 1662.07,435.212 1664.3,429.296 1666.54,423.374 1668.77,417.448 1671.01,411.521 1673.24,405.596 1675.48,399.675 1677.71,393.762 
  1679.95,387.859 1682.18,381.968 1684.41,376.093 1686.65,370.237 1688.88,364.401 1691.12,358.59 1693.35,352.805 1695.59,347.049 1697.82,341.326 1700.06,335.637 
  1702.29,329.987 1704.53,324.376 1706.76,318.809 1708.99,313.288 1711.23,307.816 1713.46,302.395 1715.7,297.028 1717.93,291.718 1720.17,286.468 1722.4,281.281 
  1724.64,276.159 1726.87,271.105 1729.11,266.121 1731.34,261.212 1733.57,256.379 1735.81,251.624 1738.04,246.952 1740.28,242.364 1742.51,237.864 1744.75,233.454 
  1746.98,229.137 1749.22,224.915 1751.45,220.792 1753.69,216.77 1755.92,212.853 1758.15,209.041 1760.39,205.34 1762.62,201.75 1764.86,198.276 1767.09,194.919 
  1769.33,191.683 1771.56,188.57 1773.8,185.584 1776.03,182.726 1778.27,179.999 1780.5,177.407 1782.73,174.953 1784.97,172.638 1787.2,170.465 1789.44,168.438 
  1791.67,166.56 1793.91,164.832 1796.14,163.258 1798.38,161.84 1800.61,160.581 1802.85,159.485 1805.08,158.553 1807.31,157.789 1809.55,157.195 1811.78,156.774 
  1814.02,156.528 1816.25,156.461 1818.49,156.569 1820.72,156.85 1822.96,157.301 1825.19,157.92 1827.43,158.704 1829.66,159.65 1831.89,160.755 1834.13,162.016 
  1836.36,163.431 1838.6,164.997 1840.83,166.712 1843.07,168.571 1845.3,170.574 1847.54,172.716 1849.77,174.996 1852.01,177.409 1854.24,179.955 1856.47,182.629 
  1858.71,185.43 1860.94,188.354 1863.18,191.398 1865.41,194.561 1867.65,197.838 1869.88,201.228 1872.12,204.728 1874.35,208.334 1876.59,212.044 1878.82,215.856 
  1881.05,219.766 1883.29,223.772 1885.52,227.871 1887.76,232.06 1889.99,236.337 1892.23,240.699 1894.46,245.142 1896.7,249.665 1898.93,254.264 1901.17,258.937 
  1903.4,263.681 1905.63,268.494 1907.87,273.371 1910.1,278.311 1912.34,283.312 1914.57,288.369 1916.81,293.481 1919.04,298.644 1921.28,303.857 1923.51,309.115 
  1925.75,314.417 1927.98,319.76 1930.21,325.14 1932.45,330.556 1934.68,336.003 1936.92,341.481 1939.15,346.985 1941.39,352.513 1943.62,358.063 1945.86,363.631 
  1948.09,369.215 1950.33,374.812 1952.56,380.42 1954.79,386.034 1957.03,391.654 1959.26,397.275 1961.5,402.896 1963.73,408.514 1965.97,414.125 1968.2,419.727 
  1970.44,425.317 1972.67,430.893 1974.91,436.451 1977.14,441.989 1979.37,447.505 1981.61,452.995 1983.84,458.456 1986.08,463.887 1988.31,469.283 1990.55,474.643 
  1992.78,479.964 1995.02,485.243 1997.25,490.476 1999.49,495.662 2001.72,500.798 2003.95,505.88 2006.19,510.907 2008.42,515.874 2010.66,520.781 2012.89,525.623 
  2015.13,530.398 2017.36,535.104 2019.6,539.737 2021.83,544.294 2024.07,548.774 2026.3,553.173 2028.53,557.489 2030.77,561.718 2033,565.858 2035.24,569.907 
  2037.47,573.861 2039.71,577.718 2041.94,581.479 2044.18,585.145 2046.41,588.716 2048.65,592.194 2050.88,595.579 2053.11,598.873 2055.35,602.076 2057.58,605.19 
  2059.82,608.215 2062.05,611.153 2064.29,614.004 2066.52,616.77 2068.76,619.451 2070.99,622.048 2073.23,624.563 2075.46,626.995 2077.69,629.348 2079.93,631.62 
  2082.16,633.813 2084.4,635.929 2086.63,637.968 2088.87,639.93 2091.1,641.818 2093.34,643.632 2095.57,645.373 2097.81,647.042 2100.04,648.64 2102.27,650.168 
  2104.51,651.627 2106.74,653.018 2108.98,654.341 2111.21,655.599 2113.45,656.791 2115.68,657.919 2117.92,658.984 2120.15,659.986 2122.39,660.928 2124.62,661.808 
  2126.85,662.63 2129.09,663.393 2131.32,664.099 2133.56,664.748 2135.79,665.342 2138.03,665.881 2140.26,666.367 2142.5,666.801 2144.73,667.182 2146.97,667.513 
  2149.2,667.795 2151.43,668.028 2153.67,668.213 2155.9,668.352 2158.14,668.444 2160.37,668.492 2162.61,668.497 2164.84,668.458 2167.08,668.377 2169.31,668.256 
  2171.55,668.095 2173.78,667.895 2176.01,667.657 2178.25,667.382 2180.48,667.071 2182.72,666.725 2184.95,666.345 2187.19,665.931 2189.42,665.486 2191.66,665.01 
  2193.89,664.503 2196.13,663.967 2198.36,663.403 2200.59,662.812 2202.83,662.195 2205.06,661.552 2207.3,660.885 2209.53,660.194 2211.77,659.481 2214,658.747 
  2216.24,657.992 2218.47,657.218 2220.71,656.425 2222.94,655.615 2225.17,654.789 2227.41,653.946 2229.64,653.089 2231.88,652.219 2234.11,651.336 2236.35,650.441 
  2238.58,649.535 2240.82,648.62 2243.05,647.696 2245.29,646.764 2247.52,645.826 2249.75,644.881 2251.99,643.932 2254.22,642.979 2256.46,642.023 2258.69,641.065 
  2260.93,640.106 
  "></polyline>
<polygon clip-path="url(#clip8201)" points="
1503.66,433.164 2249.26,433.164 2249.26,130.764 1503.66,130.764 
  " fill="#ffffff" fill-rule="evenodd" fill-opacity="1"></polygon>
<polyline clip-path="url(#clip8201)" style="stroke:#000000; stroke-width:4; stroke-opacity:1; fill:none" points="
  1503.66,433.164 2249.26,433.164 2249.26,130.764 1503.66,130.764 1503.66,433.164 
  "></polyline>
<circle clip-path="url(#clip8201)" style="fill:#000000; stroke:none; fill-opacity:1" cx="1611.66" cy="191.244" r="25"></circle>
<circle clip-path="url(#clip8201)" style="fill:#009af9; stroke:none; fill-opacity:1" cx="1611.66" cy="191.244" r="21"></circle>
<g clip-path="url(#clip8201)">
<text style="fill:#000000; fill-opacity:1; font-family:Arial,Helvetica Neue,Helvetica,sans-serif; font-size:48px; text-anchor:start;" transform="rotate(0, 1695.66, 208.744)" x="1695.66" y="208.744">data points</text>
</g>
<polyline clip-path="url(#clip8201)" style="stroke:#e26f46; stroke-width:4; stroke-opacity:1; fill:none" points="
  1527.66,251.724 1671.66,251.724 
  "></polyline>
<g clip-path="url(#clip8201)">
<text style="fill:#000000; fill-opacity:1; font-family:Arial,Helvetica Neue,Helvetica,sans-serif; font-size:48px; text-anchor:start;" transform="rotate(0, 1695.66, 269.224)" x="1695.66" y="269.224">polynomial interpolation</text>
</g>
<polyline clip-path="url(#clip8201)" style="stroke:#3da44d; stroke-width:4; stroke-opacity:1; fill:none" points="
  1527.66,312.204 1671.66,312.204 
  "></polyline>
<g clip-path="url(#clip8201)">
<text style="fill:#000000; fill-opacity:1; font-family:Arial,Helvetica Neue,Helvetica,sans-serif; font-size:48px; text-anchor:start;" transform="rotate(0, 1695.66, 329.704)" x="1695.66" y="329.704">linear interpolation</text>
</g>
<polyline clip-path="url(#clip8201)" style="stroke:#c271d2; stroke-width:4; stroke-opacity:1; fill:none" points="
  1527.66,372.684 1671.66,372.684 
  "></polyline>
<g clip-path="url(#clip8201)">
<text style="fill:#000000; fill-opacity:1; font-family:Arial,Helvetica Neue,Helvetica,sans-serif; font-size:48px; text-anchor:start;" transform="rotate(0, 1695.66, 390.184)" x="1695.66" y="390.184">cubic interpolation</text>
</g>
</svg>