<svg xmlns="http://www.w3.org/2000/svg" xmlns:xlink="http://www.w3.org/1999/xlink" width="600" height="400" viewBox="0 0 2400 1600" style="width: 100%; height: 100%;">
<defs>
  <clipPath id="clip9200">
    <rect x="0" y="0" width="2000" height="2000"></rect>
  </clipPath>
</defs>
<defs>
  <clipPath id="clip9201">
    <rect x="0" y="0" width="2400" height="1600"></rect>
  </clipPath>
</defs>
<polygon clip-path="url(#clip9201)" points="
0,1600 2400,1600 2400,0 0,0 
  " fill="#ffffff" fill-rule="evenodd" fill-opacity="1"></polygon>
<defs>
  <clipPath id="clip9202">
    <rect x="480" y="0" width="1681" height="1600"></rect>
  </clipPath>
</defs>
<polygon clip-path="url(#clip9201)" points="
161.394,1503.47 2321.26,1503.47 2321.26,47.2441 161.394,47.2441 
  " fill="#ffffff" fill-rule="evenodd" fill-opacity="1"></polygon>
<defs>
  <clipPath id="clip9203">
    <rect x="161" y="47" width="2161" height="1457"></rect>
  </clipPath>
</defs>
<polyline clip-path="url(#clip9203)" style="stroke:#000000; stroke-width:2; stroke-opacity:0.1; fill:none" points="
  448.923,1503.47 448.923,47.2441 
  "></polyline>
<polyline clip-path="url(#clip9203)" style="stroke:#000000; stroke-width:2; stroke-opacity:0.1; fill:none" points="
  901.725,1503.47 901.725,47.2441 
  "></polyline>
<polyline clip-path="url(#clip9203)" style="stroke:#000000; stroke-width:2; stroke-opacity:0.1; fill:none" points="
  1354.53,1503.47 1354.53,47.2441 
  "></polyline>
<polyline clip-path="url(#clip9203)" style="stroke:#000000; stroke-width:2; stroke-opacity:0.1; fill:none" points="
  1807.33,1503.47 1807.33,47.2441 
  "></polyline>
<polyline clip-path="url(#clip9203)" style="stroke:#000000; stroke-width:2; stroke-opacity:0.1; fill:none" points="
  2260.13,1503.47 2260.13,47.2441 
  "></polyline>
<polyline clip-path="url(#clip9203)" style="stroke:#000000; stroke-width:2; stroke-opacity:0.1; fill:none" points="
  161.394,1274.57 2321.26,1274.57 
  "></polyline>
<polyline clip-path="url(#clip9203)" style="stroke:#000000; stroke-width:2; stroke-opacity:0.1; fill:none" points="
  161.394,1021.46 2321.26,1021.46 
  "></polyline>
<polyline clip-path="url(#clip9203)" style="stroke:#000000; stroke-width:2; stroke-opacity:0.1; fill:none" points="
  161.394,768.359 2321.26,768.359 
  "></polyline>
<polyline clip-path="url(#clip9203)" style="stroke:#000000; stroke-width:2; stroke-opacity:0.1; fill:none" points="
  161.394,515.254 2321.26,515.254 
  "></polyline>
<polyline clip-path="url(#clip9203)" style="stroke:#000000; stroke-width:2; stroke-opacity:0.1; fill:none" points="
  161.394,262.149 2321.26,262.149 
  "></polyline>
<polyline clip-path="url(#clip9201)" style="stroke:#000000; stroke-width:4; stroke-opacity:1; fill:none" points="
  161.394,1503.47 2321.26,1503.47 
  "></polyline>
<polyline clip-path="url(#clip9201)" style="stroke:#000000; stroke-width:4; stroke-opacity:1; fill:none" points="
  161.394,1503.47 161.394,47.2441 
  "></polyline>
<polyline clip-path="url(#clip9201)" style="stroke:#000000; stroke-width:4; stroke-opacity:1; fill:none" points="
  448.923,1503.47 448.923,1481.63 
  "></polyline>
<polyline clip-path="url(#clip9201)" style="stroke:#000000; stroke-width:4; stroke-opacity:1; fill:none" points="
  901.725,1503.47 901.725,1481.63 
  "></polyline>
<polyline clip-path="url(#clip9201)" style="stroke:#000000; stroke-width:4; stroke-opacity:1; fill:none" points="
  1354.53,1503.47 1354.53,1481.63 
  "></polyline>
<polyline clip-path="url(#clip9201)" style="stroke:#000000; stroke-width:4; stroke-opacity:1; fill:none" points="
  1807.33,1503.47 1807.33,1481.63 
  "></polyline>
<polyline clip-path="url(#clip9201)" style="stroke:#000000; stroke-width:4; stroke-opacity:1; fill:none" points="
  2260.13,1503.47 2260.13,1481.63 
  "></polyline>
<polyline clip-path="url(#clip9201)" style="stroke:#000000; stroke-width:4; stroke-opacity:1; fill:none" points="
  161.394,1274.57 193.792,1274.57 
  "></polyline>
<polyline clip-path="url(#clip9201)" style="stroke:#000000; stroke-width:4; stroke-opacity:1; fill:none" points="
  161.394,1021.46 193.792,1021.46 
  "></polyline>
<polyline clip-path="url(#clip9201)" style="stroke:#000000; stroke-width:4; stroke-opacity:1; fill:none" points="
  161.394,768.359 193.792,768.359 
  "></polyline>
<polyline clip-path="url(#clip9201)" style="stroke:#000000; stroke-width:4; stroke-opacity:1; fill:none" points="
  161.394,515.254 193.792,515.254 
  "></polyline>
<polyline clip-path="url(#clip9201)" style="stroke:#000000; stroke-width:4; stroke-opacity:1; fill:none" points="
  161.394,262.149 193.792,262.149 
  "></polyline>
<g clip-path="url(#clip9201)">
<text style="fill:#000000; fill-opacity:1; font-family:Arial,Helvetica Neue,Helvetica,sans-serif; font-size:48px; text-anchor:middle;" transform="rotate(0, 448.923, 1557.47)" x="448.923" y="1557.47">2</text>
</g>
<g clip-path="url(#clip9201)">
<text style="fill:#000000; fill-opacity:1; font-family:Arial,Helvetica Neue,Helvetica,sans-serif; font-size:48px; text-anchor:middle;" transform="rotate(0, 901.725, 1557.47)" x="901.725" y="1557.47">4</text>
</g>
<g clip-path="url(#clip9201)">
<text style="fill:#000000; fill-opacity:1; font-family:Arial,Helvetica Neue,Helvetica,sans-serif; font-size:48px; text-anchor:middle;" transform="rotate(0, 1354.53, 1557.47)" x="1354.53" y="1557.47">6</text>
</g>
<g clip-path="url(#clip9201)">
<text style="fill:#000000; fill-opacity:1; font-family:Arial,Helvetica Neue,Helvetica,sans-serif; font-size:48px; text-anchor:middle;" transform="rotate(0, 1807.33, 1557.47)" x="1807.33" y="1557.47">8</text>
</g>
<g clip-path="url(#clip9201)">
<text style="fill:#000000; fill-opacity:1; font-family:Arial,Helvetica Neue,Helvetica,sans-serif; font-size:48px; text-anchor:middle;" transform="rotate(0, 2260.13, 1557.47)" x="2260.13" y="1557.47">10</text>
</g>
<g clip-path="url(#clip9201)">
<text style="fill:#000000; fill-opacity:1; font-family:Arial,Helvetica Neue,Helvetica,sans-serif; font-size:48px; text-anchor:end;" transform="rotate(0, 137.394, 1292.07)" x="137.394" y="1292.07">0.9</text>
</g>
<g clip-path="url(#clip9201)">
<text style="fill:#000000; fill-opacity:1; font-family:Arial,Helvetica Neue,Helvetica,sans-serif; font-size:48px; text-anchor:end;" transform="rotate(0, 137.394, 1038.96)" x="137.394" y="1038.96">1.0</text>
</g>
<g clip-path="url(#clip9201)">
<text style="fill:#000000; fill-opacity:1; font-family:Arial,Helvetica Neue,Helvetica,sans-serif; font-size:48px; text-anchor:end;" transform="rotate(0, 137.394, 785.859)" x="137.394" y="785.859">1.1</text>
</g>
<g clip-path="url(#clip9201)">
<text style="fill:#000000; fill-opacity:1; font-family:Arial,Helvetica Neue,Helvetica,sans-serif; font-size:48px; text-anchor:end;" transform="rotate(0, 137.394, 532.754)" x="137.394" y="532.754">1.2</text>
</g>
<g clip-path="url(#clip9201)">
<text style="fill:#000000; fill-opacity:1; font-family:Arial,Helvetica Neue,Helvetica,sans-serif; font-size:48px; text-anchor:end;" transform="rotate(0, 137.394, 279.649)" x="137.394" y="279.649">1.3</text>
</g>
<circle clip-path="url(#clip9203)" style="fill:#000000; stroke:none; fill-opacity:1" cx="222.522" cy="1021.46" r="18"></circle>
<circle clip-path="url(#clip9203)" style="fill:#009af9; stroke:none; fill-opacity:1" cx="222.522" cy="1021.46" r="14"></circle>
<circle clip-path="url(#clip9203)" style="fill:#000000; stroke:none; fill-opacity:1" cx="448.923" cy="1021.46" r="18"></circle>
<circle clip-path="url(#clip9203)" style="fill:#009af9; stroke:none; fill-opacity:1" cx="448.923" cy="1021.46" r="14"></circle>
<circle clip-path="url(#clip9203)" style="fill:#000000; stroke:none; fill-opacity:1" cx="675.324" cy="1021.46" r="18"></circle>
<circle clip-path="url(#clip9203)" style="fill:#009af9; stroke:none; fill-opacity:1" cx="675.324" cy="1021.46" r="14"></circle>
<circle clip-path="url(#clip9203)" style="fill:#000000; stroke:none; fill-opacity:1" cx="901.725" cy="768.359" r="18"></circle>
<circle clip-path="url(#clip9203)" style="fill:#009af9; stroke:none; fill-opacity:1" cx="901.725" cy="768.359" r="14"></circle>
<circle clip-path="url(#clip9203)" style="fill:#000000; stroke:none; fill-opacity:1" cx="1128.13" cy="1021.46" r="18"></circle>
<circle clip-path="url(#clip9203)" style="fill:#009af9; stroke:none; fill-opacity:1" cx="1128.13" cy="1021.46" r="14"></circle>
<circle clip-path="url(#clip9203)" style="fill:#000000; stroke:none; fill-opacity:1" cx="1354.53" cy="1021.46" r="18"></circle>
<circle clip-path="url(#clip9203)" style="fill:#009af9; stroke:none; fill-opacity:1" cx="1354.53" cy="1021.46" r="14"></circle>
<circle clip-path="url(#clip9203)" style="fill:#000000; stroke:none; fill-opacity:1" cx="1580.93" cy="1021.46" r="18"></circle>
<circle clip-path="url(#clip9203)" style="fill:#009af9; stroke:none; fill-opacity:1" cx="1580.93" cy="1021.46" r="14"></circle>
<circle clip-path="url(#clip9203)" style="fill:#000000; stroke:none; fill-opacity:1" cx="1807.33" cy="1021.46" r="18"></circle>
<circle clip-path="url(#clip9203)" style="fill:#009af9; stroke:none; fill-opacity:1" cx="1807.33" cy="1021.46" r="14"></circle>
<circle clip-path="url(#clip9203)" style="fill:#000000; stroke:none; fill-opacity:1" cx="2033.73" cy="1021.46" r="18"></circle>
<circle clip-path="url(#clip9203)" style="fill:#009af9; stroke:none; fill-opacity:1" cx="2033.73" cy="1021.46" r="14"></circle>
<circle clip-path="url(#clip9203)" style="fill:#000000; stroke:none; fill-opacity:1" cx="2260.13" cy="1021.46" r="18"></circle>
<circle clip-path="url(#clip9203)" style="fill:#009af9; stroke:none; fill-opacity:1" cx="2260.13" cy="1021.46" r="14"></circle>
<polyline clip-path="url(#clip9203)" style="stroke:#e26f46; stroke-width:4; stroke-opacity:1; fill:none" points="
  222.522,1021.46 224.786,952.347 227.05,886.665 229.314,824.321 231.578,765.218 233.842,709.26 236.106,656.353 238.37,606.408 240.634,559.333 242.898,515.043 
  245.162,473.45 247.426,434.471 249.69,398.024 251.954,364.027 254.218,332.403 256.482,303.074 258.746,275.964 261.01,251 263.275,228.109 265.539,207.221 
  267.803,188.266 270.067,171.177 272.331,155.888 274.595,142.333 276.859,130.451 279.123,120.179 281.387,111.456 283.651,104.224 285.915,98.4256 288.179,94.004 
  290.443,90.9044 292.707,89.0732 294.971,88.4582 297.235,89.0081 299.499,90.6733 301.763,93.405 304.027,97.1559 306.291,101.88 308.555,107.531 310.819,114.067 
  313.083,121.444 315.347,129.62 317.611,138.554 319.875,148.208 322.139,158.543 324.403,169.521 326.667,181.105 328.931,193.26 331.195,205.952 333.459,219.148 
  335.723,232.813 337.987,246.917 340.251,261.429 342.515,276.32 344.779,291.559 347.043,307.119 349.307,322.972 351.571,339.092 353.835,355.454 356.099,372.031 
  358.363,388.801 360.627,405.74 362.891,422.825 365.155,440.034 367.419,457.346 369.683,474.741 371.947,492.199 374.211,509.701 376.475,527.228 378.739,544.763 
  381.003,562.288 383.267,579.788 385.531,597.245 387.795,614.646 390.059,631.974 392.323,649.217 394.587,666.36 396.851,683.391 399.115,700.296 401.379,717.065 
  403.643,733.685 405.907,750.147 408.171,766.438 410.435,782.55 412.699,798.473 414.963,814.198 417.227,829.716 419.491,845.019 421.755,860.1 424.019,874.951 
  426.283,889.565 428.547,903.937 430.811,918.059 433.075,931.927 435.339,945.534 437.603,958.877 439.867,971.95 442.131,984.749 444.395,997.27 446.659,1009.51 
  448.923,1021.46 451.187,1033.13 453.451,1044.51 455.715,1055.59 457.979,1066.38 460.243,1076.87 462.507,1087.07 464.771,1096.96 467.035,1106.56 469.299,1115.85 
  471.563,1124.84 473.827,1133.53 476.091,1141.92 478.355,1150.01 480.619,1157.79 482.883,1165.27 485.148,1172.46 487.412,1179.34 489.676,1185.92 491.94,1192.21 
  494.204,1198.2 496.468,1203.9 498.732,1209.31 500.996,1214.42 503.26,1219.25 505.524,1223.79 507.788,1228.05 510.052,1232.03 512.316,1235.73 514.58,1239.15 
  516.844,1242.31 519.108,1245.19 521.372,1247.81 523.636,1250.16 525.9,1252.25 528.164,1254.09 530.428,1255.67 532.692,1257.01 534.956,1258.1 537.22,1258.94 
  539.484,1259.55 541.748,1259.93 544.012,1260.07 546.276,1259.99 548.54,1259.68 550.804,1259.16 553.068,1258.42 555.332,1257.48 557.596,1256.32 559.86,1254.97 
  562.124,1253.42 564.388,1251.68 566.652,1249.75 568.916,1247.63 571.18,1245.34 573.444,1242.87 575.708,1240.23 577.972,1237.42 580.236,1234.45 582.5,1231.33 
  584.764,1228.05 587.028,1224.62 589.292,1221.05 591.556,1217.34 593.82,1213.5 596.084,1209.53 598.348,1205.43 600.612,1201.2 602.876,1196.87 605.14,1192.42 
  607.404,1187.86 609.668,1183.19 611.932,1178.43 614.196,1173.58 616.46,1168.63 618.724,1163.6 620.988,1158.48 623.252,1153.29 625.516,1148.02 627.78,1142.68 
  630.044,1137.28 632.308,1131.81 634.572,1126.29 636.836,1120.72 639.1,1115.09 641.364,1109.42 643.628,1103.71 645.892,1097.96 648.156,1092.18 650.42,1086.37 
  652.684,1080.53 654.948,1074.67 657.212,1068.79 659.476,1062.89 661.74,1056.98 664.004,1051.06 666.268,1045.14 668.532,1039.22 670.796,1033.29 673.06,1027.37 
  675.324,1021.46 677.588,1015.56 679.852,1009.68 682.116,1003.81 684.38,997.961 686.644,992.136 688.908,986.336 691.172,980.564 693.436,974.824 695.7,969.118 
  697.964,963.449 700.228,957.819 702.492,952.23 704.757,946.686 707.021,941.188 709.285,935.739 711.549,930.341 713.813,924.996 716.077,919.707 718.341,914.475 
  720.605,909.303 722.869,904.192 725.133,899.145 727.397,894.163 729.661,889.248 731.925,884.402 734.189,879.627 736.453,874.923 738.717,870.294 740.981,865.739 
  743.245,861.261 745.509,856.861 747.773,852.54 750.037,848.3 752.301,844.142 754.565,840.066 756.829,836.075 759.093,832.169 761.357,828.348 763.621,824.615 
  765.885,820.97 768.149,817.413 770.413,813.946 772.677,810.57 774.941,807.284 777.205,804.089 779.469,800.987 781.733,797.977 783.997,795.061 786.261,792.237 
  788.525,789.508 790.789,786.873 793.053,784.332 795.317,781.886 797.581,779.535 799.845,777.278 802.109,775.117 804.373,773.051 806.637,771.079 808.901,769.203 
  811.165,767.422 813.429,765.735 815.693,764.144 817.957,762.646 820.221,761.243 822.485,759.933 824.749,758.717 827.013,757.594 829.277,756.564 831.541,755.626 
  833.805,754.78 836.069,754.025 838.333,753.361 840.597,752.786 842.861,752.302 845.125,751.906 847.389,751.598 849.653,751.377 851.917,751.244 854.181,751.196 
  856.445,751.233 858.709,751.354 860.973,751.559 863.237,751.846 865.501,752.215 867.765,752.664 870.029,753.193 872.293,753.8 874.557,754.485 876.821,755.247 
  879.085,756.084 881.349,756.996 883.613,757.98 885.877,759.037 888.141,760.165 890.405,761.363 892.669,762.63 894.933,763.964 897.197,765.364 899.461,766.83 
  901.725,768.359 903.989,769.951 906.253,771.604 908.517,773.318 910.781,775.09 913.045,776.919 915.309,778.804 917.573,780.745 919.837,782.738 922.101,784.784 
  924.366,786.881 926.63,789.027 928.894,791.221 931.158,793.461 933.422,795.747 935.686,798.077 937.95,800.45 940.214,802.863 942.478,805.317 944.742,807.808 
  947.006,810.337 949.27,812.901 951.534,815.5 953.798,818.131 956.062,820.793 958.326,823.486 960.59,826.207 962.854,828.955 965.118,831.73 967.382,834.528 
  969.646,837.35 971.91,840.193 974.174,843.057 976.438,845.94 978.702,848.84 980.966,851.757 983.23,854.688 985.494,857.633 987.758,860.591 990.022,863.559 
  992.286,866.537 994.55,869.523 996.814,872.516 999.078,875.515 1001.34,878.519 1003.61,881.526 1005.87,884.534 1008.13,887.544 1010.4,890.553 1012.66,893.56 
  1014.93,896.565 1017.19,899.565 1019.45,902.56 1021.72,905.549 1023.98,908.53 1026.25,911.503 1028.51,914.466 1030.77,917.418 1033.04,920.358 1035.3,923.285 
  1037.57,926.198 1039.83,929.096 1042.09,931.978 1044.36,934.843 1046.62,937.69 1048.89,940.518 1051.15,943.326 1053.41,946.113 1055.68,948.878 1057.94,951.621 
  1060.21,954.34 1062.47,957.034 1064.73,959.704 1067,962.347 1069.26,964.964 1071.53,967.553 1073.79,970.113 1076.05,972.645 1078.32,975.146 1080.58,977.618 
  1082.85,980.058 1085.11,982.466 1087.37,984.842 1089.64,987.185 1091.9,989.494 1094.17,991.769 1096.43,994.009 1098.69,996.214 1100.96,998.383 1103.22,1000.52 
  1105.49,1002.61 1107.75,1004.67 1110.01,1006.69 1112.28,1008.68 1114.54,1010.62 1116.81,1012.53 1119.07,1014.39 1121.33,1016.22 1123.6,1018.01 1125.86,1019.76 
  1128.13,1021.46 1130.39,1023.13 1132.65,1024.76 1134.92,1026.34 1137.18,1027.89 1139.45,1029.39 1141.71,1030.85 1143.97,1032.27 1146.24,1033.65 1148.5,1034.99 
  1150.77,1036.28 1153.03,1037.54 1155.29,1038.75 1157.56,1039.92 1159.82,1041.05 1162.09,1042.13 1164.35,1043.18 1166.61,1044.18 1168.88,1045.14 1171.14,1046.07 
  1173.41,1046.95 1175.67,1047.78 1177.93,1048.58 1180.2,1049.34 1182.46,1050.05 1184.73,1050.73 1186.99,1051.37 1189.25,1051.96 1191.52,1052.52 1193.78,1053.04 
  1196.05,1053.52 1198.31,1053.96 1200.57,1054.36 1202.84,1054.72 1205.1,1055.05 1207.37,1055.34 1209.63,1055.59 1211.89,1055.81 1214.16,1055.99 1216.42,1056.13 
  1218.69,1056.24 1220.95,1056.32 1223.21,1056.36 1225.48,1056.37 1227.74,1056.34 1230.01,1056.29 1232.27,1056.2 1234.53,1056.07 1236.8,1055.92 1239.06,1055.74 
  1241.33,1055.53 1243.59,1055.29 1245.85,1055.02 1248.12,1054.72 1250.38,1054.39 1252.65,1054.04 1254.91,1053.66 1257.18,1053.26 1259.44,1052.83 1261.7,1052.37 
  1263.97,1051.9 1266.23,1051.4 1268.5,1050.87 1270.76,1050.33 1273.02,1049.77 1275.29,1049.18 1277.55,1048.58 1279.82,1047.95 1282.08,1047.31 1284.34,1046.65 
  1286.61,1045.97 1288.87,1045.28 1291.14,1044.58 1293.4,1043.85 1295.66,1043.12 1297.93,1042.37 1300.19,1041.61 1302.46,1040.83 1304.72,1040.05 1306.98,1039.26 
  1309.25,1038.45 1311.51,1037.64 1313.78,1036.82 1316.04,1035.99 1318.3,1035.15 1320.57,1034.31 1322.83,1033.47 1325.1,1032.62 1327.36,1031.76 1329.62,1030.9 
  1331.89,1030.04 1334.15,1029.18 1336.42,1028.32 1338.68,1027.46 1340.94,1026.59 1343.21,1025.73 1345.47,1024.87 1347.74,1024.02 1350,1023.16 1352.26,1022.31 
  1354.53,1021.46 1356.79,1020.62 1359.06,1019.79 1361.32,1018.96 1363.58,1018.14 1365.85,1017.32 1368.11,1016.52 1370.38,1015.72 1372.64,1014.93 1374.9,1014.15 
  1377.17,1013.38 1379.43,1012.63 1381.7,1011.88 1383.96,1011.15 1386.22,1010.43 1388.49,1009.72 1390.75,1009.03 1393.02,1008.35 1395.28,1007.69 1397.54,1007.04 
  1399.81,1006.41 1402.07,1005.79 1404.34,1005.19 1406.6,1004.61 1408.86,1004.04 1411.13,1003.49 1413.39,1002.96 1415.66,1002.45 1417.92,1001.96 1420.18,1001.49 
  1422.45,1001.03 1424.71,1000.6 1426.98,1000.19 1429.24,999.797 1431.5,999.425 1433.77,999.075 1436.03,998.746 1438.3,998.438 1440.56,998.153 1442.82,997.889 
  1445.09,997.648 1447.35,997.429 1449.62,997.232 1451.88,997.058 1454.14,996.907 1456.41,996.779 1458.67,996.674 1460.94,996.592 1463.2,996.533 1465.46,996.497 
  1467.73,996.484 1469.99,996.495 1472.26,996.529 1474.52,996.586 1476.78,996.666 1479.05,996.769 1481.31,996.895 1483.58,997.045 1485.84,997.217 1488.1,997.412 
  1490.37,997.629 1492.63,997.869 1494.9,998.131 1497.16,998.416 1499.42,998.722 1501.69,999.05 1503.95,999.399 1506.22,999.77 1508.48,1000.16 1510.74,1000.57 
  1513.01,1001.01 1515.27,1001.46 1517.54,1001.93 1519.8,1002.42 1522.06,1002.94 1524.33,1003.47 1526.59,1004.01 1528.86,1004.58 1531.12,1005.16 1533.38,1005.77 
  1535.65,1006.38 1537.91,1007.02 1540.18,1007.67 1542.44,1008.33 1544.7,1009.01 1546.97,1009.71 1549.23,1010.42 1551.5,1011.14 1553.76,1011.87 1556.02,1012.62 
  1558.29,1013.38 1560.55,1014.14 1562.82,1014.92 1565.08,1015.71 1567.34,1016.51 1569.61,1017.32 1571.87,1018.13 1574.14,1018.96 1576.4,1019.79 1578.66,1020.62 
  1580.93,1021.46 1583.19,1022.31 1585.46,1023.16 1587.72,1024.01 1589.98,1024.87 1592.25,1025.73 1594.51,1026.59 1596.78,1027.45 1599.04,1028.31 1601.3,1029.17 
  1603.57,1030.02 1605.83,1030.88 1608.1,1031.73 1610.36,1032.58 1612.62,1033.43 1614.89,1034.26 1617.15,1035.1 1619.42,1035.92 1621.68,1036.74 1623.94,1037.55 
  1626.21,1038.35 1628.47,1039.15 1630.74,1039.93 1633,1040.7 1635.26,1041.45 1637.53,1042.2 1639.79,1042.93 1642.06,1043.65 1644.32,1044.35 1646.58,1045.04 
  1648.85,1045.71 1651.11,1046.36 1653.38,1047 1655.64,1047.61 1657.9,1048.21 1660.17,1048.79 1662.43,1049.35 1664.7,1049.88 1666.96,1050.39 1669.22,1050.88 
  1671.49,1051.35 1673.75,1051.79 1676.02,1052.21 1678.28,1052.61 1680.54,1052.97 1682.81,1053.31 1685.07,1053.63 1687.34,1053.91 1689.6,1054.17 1691.86,1054.4 
  1694.13,1054.6 1696.39,1054.77 1698.66,1054.91 1700.92,1055.02 1703.19,1055.1 1705.45,1055.14 1707.71,1055.16 1709.98,1055.14 1712.24,1055.08 1714.51,1055 
  1716.77,1054.88 1719.03,1054.73 1721.3,1054.54 1723.56,1054.32 1725.83,1054.06 1728.09,1053.77 1730.35,1053.44 1732.62,1053.08 1734.88,1052.68 1737.15,1052.24 
  1739.41,1051.77 1741.67,1051.27 1743.94,1050.72 1746.2,1050.14 1748.47,1049.53 1750.73,1048.88 1752.99,1048.19 1755.26,1047.46 1757.52,1046.7 1759.79,1045.91 
  1762.05,1045.08 1764.31,1044.21 1766.58,1043.31 1768.84,1042.37 1771.11,1041.4 1773.37,1040.39 1775.63,1039.35 1777.9,1038.27 1780.16,1037.17 1782.43,1036.03 
  1784.69,1034.85 1786.95,1033.65 1789.22,1032.41 1791.48,1031.14 1793.75,1029.85 1796.01,1028.52 1798.27,1027.16 1800.54,1025.78 1802.8,1024.37 1805.07,1022.93 
  1807.33,1021.46 1809.59,1019.98 1811.86,1018.46 1814.12,1016.93 1816.39,1015.37 1818.65,1013.79 1820.91,1012.19 1823.18,1010.57 1825.44,1008.94 1827.71,1007.29 
  1829.97,1005.62 1832.23,1003.94 1834.5,1002.24 1836.76,1000.53 1839.03,998.816 1841.29,997.09 1843.55,995.356 1845.82,993.616 1848.08,991.872 1850.35,990.124 
  1852.61,988.375 1854.87,986.625 1857.14,984.878 1859.4,983.133 1861.67,981.394 1863.93,979.661 1866.19,977.937 1868.46,976.222 1870.72,974.52 1872.99,972.832 
  1875.25,971.159 1877.51,969.504 1879.78,967.869 1882.04,966.255 1884.31,964.665 1886.57,963.1 1888.83,961.563 1891.1,960.056 1893.36,958.58 1895.63,957.139 
  1897.89,955.733 1900.15,954.366 1902.42,953.039 1904.68,951.754 1906.95,950.514 1909.21,949.322 1911.47,948.179 1913.74,947.087 1916,946.05 1918.27,945.068 
  1920.53,944.145 1922.79,943.283 1925.06,942.485 1927.32,941.751 1929.59,941.086 1931.85,940.491 1934.11,939.968 1936.38,939.521 1938.64,939.151 1940.91,938.86 
  1943.17,938.651 1945.43,938.527 1947.7,938.49 1949.96,938.541 1952.23,938.684 1954.49,938.92 1956.75,939.252 1959.02,939.683 1961.28,940.213 1963.55,940.847 
  1965.81,941.585 1968.07,942.43 1970.34,943.384 1972.6,944.449 1974.87,945.628 1977.13,946.922 1979.39,948.333 1981.66,949.863 1983.92,951.514 1986.19,953.288 
  1988.45,955.187 1990.71,957.212 1992.98,959.365 1995.24,961.648 1997.51,964.062 1999.77,966.609 2002.03,969.29 2004.3,972.106 2006.56,975.058 2008.83,978.149 
  2011.09,981.378 2013.35,984.747 2015.62,988.256 2017.88,991.907 2020.15,995.7 2022.41,999.636 2024.67,1003.71 2026.94,1007.94 2029.2,1012.3 2031.47,1016.81 
  2033.73,1021.46 2035.99,1026.26 2038.26,1031.2 2040.52,1036.28 2042.79,1041.51 2045.05,1046.87 2047.31,1052.38 2049.58,1058.02 2051.84,1063.8 2054.11,1069.72 
  2056.37,1075.78 2058.63,1081.96 2060.9,1088.28 2063.16,1094.73 2065.43,1101.3 2067.69,1107.99 2069.95,1114.81 2072.22,1121.74 2074.48,1128.79 2076.75,1135.95 
  2079.01,1143.22 2081.27,1150.59 2083.54,1158.05 2085.8,1165.61 2088.07,1173.26 2090.33,1181 2092.59,1188.81 2094.86,1196.7 2097.12,1204.65 2099.39,1212.66 
  2101.65,1220.73 2103.91,1228.84 2106.18,1237 2108.44,1245.18 2110.71,1253.39 2112.97,1261.61 2115.23,1269.84 2117.5,1278.07 2119.76,1286.29 2122.03,1294.48 
  2124.29,1302.65 2126.55,1310.77 2128.82,1318.83 2131.08,1326.84 2133.35,1334.76 2135.61,1342.59 2137.88,1350.32 2140.14,1357.94 2142.4,1365.42 2144.67,1372.76 
  2146.93,1379.94 2149.2,1386.95 2151.46,1393.76 2153.72,1400.37 2155.99,1406.76 2158.25,1412.9 2160.52,1418.78 2162.78,1424.38 2165.04,1429.69 2167.31,1434.68 
  2169.57,1439.33 2171.84,1443.62 2174.1,1447.53 2176.36,1451.04 2178.63,1454.12 2180.89,1456.75 2183.16,1458.9 2185.42,1460.56 2187.68,1461.69 2189.95,1462.26 
  2192.21,1462.26 2194.48,1461.64 2196.74,1460.39 2199,1458.47 2201.27,1455.86 2203.53,1452.51 2205.8,1448.41 2208.06,1443.51 2210.32,1437.78 2212.59,1431.19 
  2214.85,1423.7 2217.12,1415.27 2219.38,1405.87 2221.64,1395.46 2223.91,1384 2226.17,1371.45 2228.44,1357.76 2230.7,1342.9 2232.96,1326.82 2235.23,1309.48 
  2237.49,1290.83 2239.76,1270.82 2242.02,1249.41 2244.28,1226.54 2246.55,1202.18 2248.81,1176.25 2251.08,1148.73 2253.34,1119.54 2255.6,1088.64 2257.87,1055.97 
  2260.13,1021.46 
  "></polyline>
<polygon clip-path="url(#clip9201)" points="
1503.66,312.204 2249.26,312.204 2249.26,130.764 1503.66,130.764 
  " fill="#ffffff" fill-rule="evenodd" fill-opacity="1"></polygon>
<polyline clip-path="url(#clip9201)" style="stroke:#000000; stroke-width:4; stroke-opacity:1; fill:none" points="
  1503.66,312.204 2249.26,312.204 2249.26,130.764 1503.66,130.764 1503.66,312.204 
  "></polyline>
<circle clip-path="url(#clip9201)" style="fill:#000000; stroke:none; fill-opacity:1" cx="1611.66" cy="191.244" r="25"></circle>
<circle clip-path="url(#clip9201)" style="fill:#009af9; stroke:none; fill-opacity:1" cx="1611.66" cy="191.244" r="21"></circle>
<g clip-path="url(#clip9201)">
<text style="fill:#000000; fill-opacity:1; font-family:Arial,Helvetica Neue,Helvetica,sans-serif; font-size:48px; text-anchor:start;" transform="rotate(0, 1695.66, 208.744)" x="1695.66" y="208.744">data points</text>
</g>
<polyline clip-path="url(#clip9201)" style="stroke:#e26f46; stroke-width:4; stroke-opacity:1; fill:none" points="
  1527.66,251.724 1671.66,251.724 
  "></polyline>
<g clip-path="url(#clip9201)">
<text style="fill:#000000; fill-opacity:1; font-family:Arial,Helvetica Neue,Helvetica,sans-serif; font-size:48px; text-anchor:start;" transform="rotate(0, 1695.66, 269.224)" x="1695.66" y="269.224">polynomial interpolation</text>
</g>
</svg>